<svg xmlns="http://www.w3.org/2000/svg" xmlns:xlink="http://www.w3.org/1999/xlink" viewBox="0 0 1080 1080"><defs><style>.cls-1{fill:url(#linear-gradient);}.cls-2,.cls-7{fill:#edf9f4;}.cls-2{opacity:0.6;}.cls-12,.cls-2,.cls-20,.cls-46,.cls-60,.cls-93,.cls-95{isolation:isolate;}.cls-3{fill:url(#linear-gradient-2);}.cls-4{fill:url(#linear-gradient-3);}.cls-5{fill:url(#linear-gradient-4);}.cls-6{fill:url(#linear-gradient-5);}.cls-8{fill:#b8e4ca;}.cls-9{fill:#6ecf91;}.cls-10{fill:#61c685;}.cls-11{fill:#b5f7cc;}.cls-12,.cls-96{fill:#fff;}.cls-12{opacity:0.5;}.cls-13{fill:none;}.cls-14{fill:#b0e2c2;}.cls-15{fill:#b6e7c8;}.cls-16{fill:#d8ede3;}.cls-17{fill:url(#linear-gradient-6);}.cls-18{fill:url(#linear-gradient-7);}.cls-19{fill:url(#linear-gradient-8);}.cls-20{opacity:0.05;}.cls-21{fill:#ffe269;}.cls-22{fill:#fff0b4;}.cls-23{fill:#f9ce04;}.cls-24{fill:#fce681;}.cls-24,.cls-80,.cls-84,.cls-85,.cls-88,.cls-89,.cls-90,.cls-91,.cls-92,.cls-93{fill-rule:evenodd;}.cls-25{fill:#f89d27;}.cls-26{fill:url(#linear-gradient-9);}.cls-27{fill:#99e0af;}.cls-28{fill:url(#linear-gradient-10);}.cls-29{fill:url(#linear-gradient-11);}.cls-30{fill:url(#linear-gradient-12);}.cls-31{fill:url(#linear-gradient-13);}.cls-32{fill:url(#linear-gradient-14);}.cls-33{fill:url(#linear-gradient-15);}.cls-34{fill:url(#linear-gradient-16);}.cls-35{fill:url(#linear-gradient-17);}.cls-36{fill:url(#linear-gradient-18);}.cls-37{fill:url(#linear-gradient-19);}.cls-38{fill:url(#linear-gradient-20);}.cls-39{fill:url(#linear-gradient-21);}.cls-40{fill:url(#linear-gradient-22);}.cls-41{fill:url(#linear-gradient-23);}.cls-42{fill:url(#linear-gradient-24);}.cls-43,.cls-60,.cls-91{fill:#1baa56;}.cls-44{fill:url(#linear-gradient-25);}.cls-45{fill:url(#linear-gradient-26);}.cls-46{fill:#e3bc44;}.cls-46,.cls-60{opacity:0.2;}.cls-47{fill:url(#linear-gradient-27);}.cls-48{fill:url(#linear-gradient-28);}.cls-49{fill:url(#linear-gradient-29);}.cls-50{fill:url(#linear-gradient-30);}.cls-51{fill:url(#linear-gradient-31);}.cls-52{fill:url(#linear-gradient-32);}.cls-53{fill:url(#linear-gradient-33);}.cls-54{fill:url(#linear-gradient-34);}.cls-55{fill:url(#linear-gradient-35);}.cls-56{fill:url(#linear-gradient-36);}.cls-57{fill:url(#linear-gradient-37);}.cls-58{fill:url(#linear-gradient-38);}.cls-59{fill:url(#linear-gradient-39);}.cls-61{fill:url(#linear-gradient-40);}.cls-62{fill:url(#linear-gradient-41);}.cls-63{fill:url(#linear-gradient-42);}.cls-64{fill:url(#linear-gradient-43);}.cls-65{fill:url(#linear-gradient-44);}.cls-66{fill:url(#linear-gradient-45);}.cls-67{fill:url(#linear-gradient-46);}.cls-68{fill:url(#linear-gradient-47);}.cls-69{fill:url(#linear-gradient-48);}.cls-70{fill:#eefff3;}.cls-71{fill:#d5ffe1;}.cls-72{fill:#80e3b0;}.cls-73{fill:#91ffc5;}.cls-74{fill:#daf5e2;}.cls-75{fill:#6fc498;}.cls-76{fill:#7dba8f;}.cls-77{fill:#c0edcb;}.cls-78{fill:#b2dec3;}.cls-79{fill:#59d695;}.cls-80{fill:#f8cac2;}.cls-81,.cls-84{fill:#0074db;}.cls-82,.cls-89{fill:#fbd2cb;}.cls-83{fill:#8b3921;}.cls-85{fill:#f0bdb4;}.cls-86,.cls-88{fill:#3a434e;}.cls-87{fill:#f0beb5;}.cls-90{fill:#e51685;fill-opacity:0.2;}.cls-92{fill:url(#linear-gradient-49);}.cls-93{opacity:0.19;fill:url(#linear-gradient-50);}.cls-94{opacity:0.15;}.cls-95{opacity:0.75;}.cls-97{fill:#cbf7d0;}.cls-98{fill:#9beaa8;}.cls-99{fill:url(#linear-gradient-51);}.cls-100{fill:#e6e6e6;}.cls-101{fill:#63c66f;}.cls-102{fill:#ccc;}.cls-103{fill:#2d7a31;}.cls-104{fill:#398e3f;}.cls-105{fill:#45a34e;}.cls-106{fill:#7a97bd;}.cls-107{fill:#ab7a4a;}.cls-108{fill:#95662f;}.cls-109{fill:#a06e42;}.cls-110{fill:#70451a;}.cls-111{fill:#c58f63;}.cls-112{fill:#58834a;}.cls-113{fill:#98cabd;}.cls-114{fill:#71b6a4;}.cls-115{fill:#fad059;}.cls-116{fill:#534741;}.cls-117{fill:#dc4741;}.cls-118{fill:#664e91;}.cls-119{fill:#413d46;}.cls-120{fill:#4d4d4d;}.cls-121{fill:#5e9666;}.cls-122{fill:#75b580;}.cls-123{fill:#ffdc64;}.cls-124{fill:#ffc850;}.cls-125{fill:url(#linear-gradient-52);}.cls-126{fill:url(#linear-gradient-53);}.cls-127{fill:url(#linear-gradient-54);}.cls-128{mask:url(#mask);}.cls-129{fill:url(#linear-gradient-55);}.cls-130{fill:url(#linear-gradient-56);}.cls-131{fill:url(#linear-gradient-57);}.cls-132{fill:url(#linear-gradient-58);}.cls-133{fill:url(#linear-gradient-59);}.cls-134{fill:url(#linear-gradient-60);}</style><linearGradient id="linear-gradient" x1="815.87" y1="1460.69" x2="815.88" y2="1450.01" gradientTransform="matrix(1, 0, 0, -1, 0, 1922)" gradientUnits="userSpaceOnUse"><stop offset="0" stop-color="#d2f1ff"/><stop offset="1" stop-color="#82cef0"/></linearGradient><linearGradient id="linear-gradient-2" x1="794.55" y1="1634.96" x2="794.55" y2="1634.65" gradientTransform="matrix(1, 0, 0, -1, 0, 1922)" gradientUnits="userSpaceOnUse"><stop offset="0" stop-color="#efcc00"/><stop offset="1" stop-color="#fed055"/></linearGradient><linearGradient id="linear-gradient-3" x1="740.63" y1="1633.75" x2="740.63" y2="1634.88" gradientTransform="matrix(1, 0, 0, -1, 0, 1922)" gradientUnits="userSpaceOnUse"><stop offset="0" stop-color="#f7931e"/><stop offset="1" stop-color="#fed055"/></linearGradient><linearGradient id="linear-gradient-4" x1="565.69" y1="1640.38" x2="565.69" y2="1640.15" gradientTransform="matrix(1, 0, 0, -1, 0, 1922)" gradientUnits="userSpaceOnUse"><stop offset="0" stop-color="#ffea71"/><stop offset="1" stop-color="#fed055"/></linearGradient><linearGradient id="linear-gradient-5" x1="565.5" y1="1639.97" x2="565.98" y2="1640.45" gradientTransform="matrix(1, 0, 0, -1, 0, 1922)" gradientUnits="userSpaceOnUse"><stop offset="0" stop-color="#f9cf00"/><stop offset="1" stop-color="#fcc344"/></linearGradient><linearGradient id="linear-gradient-6" x1="774.29" y1="1581.85" x2="794.51" y2="1493.89" gradientTransform="matrix(1, 0, 0, -1, 0, 1922)" gradientUnits="userSpaceOnUse"><stop offset="0" stop-color="#eefff3"/><stop offset="0.24" stop-color="#e9fef0"/><stop offset="0.54" stop-color="#dafce5"/><stop offset="0.86" stop-color="#c2f9d5"/><stop offset="1" stop-color="#b5f7cc"/></linearGradient><linearGradient id="linear-gradient-7" x1="755.79" y1="1572.89" x2="801.46" y2="1499.17" xlink:href="#linear-gradient-6"/><linearGradient id="linear-gradient-8" x1="767.78" y1="1579.99" x2="797.47" y2="1494.87" xlink:href="#linear-gradient-6"/><linearGradient id="linear-gradient-9" x1="585.25" y1="1543.07" x2="581.32" y2="1548.44" xlink:href="#linear-gradient-5"/><linearGradient id="linear-gradient-10" x1="534.09" y1="1593.12" x2="630.53" y2="1593.12" xlink:href="#linear-gradient-6"/><linearGradient id="linear-gradient-11" x1="541.57" y1="1596.26" x2="584.31" y2="1596.26" xlink:href="#linear-gradient-6"/><linearGradient id="linear-gradient-12" x1="601.68" y1="1636.45" x2="659.95" y2="1636.45" xlink:href="#linear-gradient-6"/><linearGradient id="linear-gradient-13" x1="687.8" y1="1610.81" x2="678.76" y2="1564.15" gradientTransform="matrix(1, 0, 0, -1, 0, 1922)" gradientUnits="userSpaceOnUse"><stop offset="0" stop-color="#e3dfdf"/><stop offset="1" stop-color="#d1cccc"/></linearGradient><linearGradient id="linear-gradient-14" x1="686.51" y1="1612.1" x2="677.4" y2="1565.09" gradientTransform="matrix(1, 0, 0, -1, 0, 1922)" gradientUnits="userSpaceOnUse"><stop offset="0" stop-color="#fff"/><stop offset="1" stop-color="#e5e4e4"/></linearGradient><linearGradient id="linear-gradient-15" x1="552.66" y1="1603.24" x2="552.66" y2="1560.38" xlink:href="#linear-gradient-13"/><linearGradient id="linear-gradient-16" x1="553.96" y1="1604.53" x2="553.96" y2="1560.82" xlink:href="#linear-gradient-14"/><linearGradient id="linear-gradient-17" x1="617.52" y1="1595.75" x2="617.52" y2="1571.46" xlink:href="#linear-gradient-13"/><linearGradient id="linear-gradient-18" x1="617.52" y1="1597.04" x2="617.52" y2="1572.45" xlink:href="#linear-gradient-14"/><linearGradient id="linear-gradient-19" x1="627.67" y1="1597.8" x2="595.98" y2="1564.17" gradientTransform="matrix(1, 0, 0, -1, 0, 1922)" gradientUnits="userSpaceOnUse"><stop offset="0" stop-color="#ffd65c"/><stop offset="1" stop-color="#e3bc44"/></linearGradient><linearGradient id="linear-gradient-20" x1="630.38" y1="1600" x2="598.07" y2="1568.28" xlink:href="#linear-gradient-19"/><linearGradient id="linear-gradient-21" x1="613.54" y1="1581.77" x2="639.36" y2="1621.65" gradientTransform="matrix(1, 0, 0, -1, 0, 1922)" gradientUnits="userSpaceOnUse"><stop offset="0.04" stop-color="#ffd65c"/><stop offset="0.2" stop-color="#ffe28a"/><stop offset="0.38" stop-color="#ffecb4"/><stop offset="0.55" stop-color="#fff4d5"/><stop offset="0.71" stop-color="#fffaec"/><stop offset="0.87" stop-color="#fffefa"/><stop offset="1" stop-color="#fff"/></linearGradient><linearGradient id="linear-gradient-22" x1="613" y1="1577.2" x2="637.97" y2="1618.12" xlink:href="#linear-gradient-21"/><linearGradient id="linear-gradient-23" x1="623.7" y1="1595.12" x2="616.77" y2="1586.31" gradientTransform="matrix(1, 0, 0, -1, 0, 1922)" gradientUnits="userSpaceOnUse"><stop offset="0" stop-color="#62ed9a"/><stop offset="1" stop-color="#1baa56"/></linearGradient><linearGradient id="linear-gradient-24" x1="620.75" y1="1590.92" x2="615.41" y2="1583.45" xlink:href="#linear-gradient-23"/><linearGradient id="linear-gradient-25" x1="677.65" y1="1604.78" x2="678.22" y2="1590.04" gradientTransform="matrix(1, 0, 0, -1, 0, 1922)" gradientUnits="userSpaceOnUse"><stop offset="0.45" stop-color="#ffd65c"/><stop offset="1" stop-color="#e3bc44"/></linearGradient><linearGradient id="linear-gradient-26" x1="679.5" y1="1585.42" x2="678.42" y2="1613.38" gradientTransform="matrix(1, 0, 0, -1, 0, 1922)" gradientUnits="userSpaceOnUse"><stop offset="0" stop-color="#ffd65c"/><stop offset="0.12" stop-color="#ffd864"/><stop offset="0.3" stop-color="#ffdd79"/><stop offset="0.52" stop-color="#ffe69c"/><stop offset="0.77" stop-color="#fff2cc"/><stop offset="1" stop-color="#fff"/></linearGradient><linearGradient id="linear-gradient-27" x1="687.27" y1="1585.04" x2="684.71" y2="1591.94" gradientTransform="matrix(1, 0, 0, -1, 0, 1922)" gradientUnits="userSpaceOnUse"><stop offset="0.28" stop-color="#ffd65c"/><stop offset="0.37" stop-color="#ffd864"/><stop offset="0.5" stop-color="#ffdd79"/><stop offset="0.65" stop-color="#ffe69c"/><stop offset="0.83" stop-color="#fff2cc"/><stop offset="1" stop-color="#fff"/></linearGradient><linearGradient id="linear-gradient-28" x1="686.36" y1="1584.96" x2="683.84" y2="1591.9" xlink:href="#linear-gradient-27"/><linearGradient id="linear-gradient-29" x1="684.94" y1="1588.89" x2="683.25" y2="1593.53" xlink:href="#linear-gradient-26"/><linearGradient id="linear-gradient-30" x1="694.46" y1="1585.34" x2="693.32" y2="1592.89" xlink:href="#linear-gradient-27"/><linearGradient id="linear-gradient-31" x1="676.24" y1="1587.15" x2="675.11" y2="1594.7" xlink:href="#linear-gradient-26"/><linearGradient id="linear-gradient-32" x1="688.25" y1="1594.2" x2="686.29" y2="1602.52" xlink:href="#linear-gradient-26"/><linearGradient id="linear-gradient-33" x1="688.16" y1="1596.12" x2="687.84" y2="1599.99" xlink:href="#linear-gradient-26"/><linearGradient id="linear-gradient-34" x1="687.73" y1="1598.01" x2="681.26" y2="1596.38" xlink:href="#linear-gradient-25"/><linearGradient id="linear-gradient-35" x1="678.17" y1="1590.94" x2="678.6" y2="1599.56" xlink:href="#linear-gradient-26"/><linearGradient id="linear-gradient-36" x1="678.52" y1="1593.6" x2="678.55" y2="1597.65" xlink:href="#linear-gradient-26"/><linearGradient id="linear-gradient-37" x1="678.69" y1="1595.08" x2="671.97" y2="1595.2" xlink:href="#linear-gradient-25"/><linearGradient id="linear-gradient-38" x1="692.86" y1="1598.86" x2="673.8" y2="1584.28" xlink:href="#linear-gradient-23"/><linearGradient id="linear-gradient-39" x1="690.34" y1="1586.31" x2="690.17" y2="1594.26" gradientTransform="matrix(1, 0, 0, -1, 0, 1922)" gradientUnits="userSpaceOnUse"><stop offset="0" stop-color="#1baa56"/><stop offset="1" stop-color="#62ed9a"/></linearGradient><linearGradient id="linear-gradient-40" x1="536.28" y1="1595.04" x2="564.14" y2="1587.38" xlink:href="#linear-gradient-23"/><linearGradient id="linear-gradient-41" x1="534.44" y1="1588.65" x2="565.13" y2="1585.25" xlink:href="#linear-gradient-23"/><linearGradient id="linear-gradient-42" x1="553.25" y1="1593.75" x2="552.74" y2="1580.91" xlink:href="#linear-gradient-23"/><linearGradient id="linear-gradient-43" x1="553.22" y1="1602.88" x2="552.85" y2="1579.38" xlink:href="#linear-gradient-23"/><linearGradient id="linear-gradient-44" x1="553.87" y1="1589.19" x2="553.14" y2="1584.07" xlink:href="#linear-gradient-23"/><linearGradient id="linear-gradient-45" x1="553.15" y1="1594.62" x2="552.99" y2="1583.97" xlink:href="#linear-gradient-23"/><linearGradient id="linear-gradient-46" x1="552.8" y1="1583.88" x2="554.76" y2="1597.68" xlink:href="#linear-gradient-21"/><linearGradient id="linear-gradient-47" x1="548.73" y1="1596.43" x2="565.38" y2="1592.29" xlink:href="#linear-gradient-19"/><linearGradient id="linear-gradient-48" x1="553.73" y1="1591.11" x2="554" y2="1607.35" xlink:href="#linear-gradient-21"/><linearGradient id="linear-gradient-49" x1="767.12" y1="1733.64" x2="773.25" y2="1727.23" gradientTransform="matrix(1, 0, 0, -1, 0, 1922)" gradientUnits="userSpaceOnUse"><stop offset="0" stop-color="#fff"/><stop offset="1" stop-color="#e6e6e6"/></linearGradient><linearGradient id="linear-gradient-50" x1="769.86" y1="1728.95" x2="775.87" y2="1717.93" gradientTransform="matrix(1, 0, 0, -1, 0, 1922)" gradientUnits="userSpaceOnUse"><stop offset="0" stop-color="#fce5b4" stop-opacity="0"/><stop offset="0.14" stop-color="#f8dda8" stop-opacity="0.16"/><stop offset="0.4" stop-color="#ecc688" stop-opacity="0.45"/><stop offset="0.74" stop-color="#daa254" stop-opacity="0.83"/><stop offset="0.89" stop-color="#d1913c"/></linearGradient><linearGradient id="linear-gradient-51" x1="845.75" y1="1529" x2="946.95" y2="1529" gradientTransform="matrix(1, 0, 0, -1, 0, 1922)" gradientUnits="userSpaceOnUse"><stop offset="0" stop-color="#a0e0b3"/><stop offset="0.33" stop-color="#9bdcae"/><stop offset="0.73" stop-color="#8dd09f"/><stop offset="1" stop-color="#80c491"/></linearGradient><linearGradient id="linear-gradient-52" x1="815.88" y1="1452.31" x2="815.88" y2="1439.16" gradientTransform="matrix(1, 0, 0, -1, 0, 1922)" gradientUnits="userSpaceOnUse"><stop offset="0" stop-color="#a5e3ff"/><stop offset="0.45" stop-color="#57c2f2"/><stop offset="1" stop-color="#21a4df"/></linearGradient><linearGradient id="linear-gradient-53" x1="815.88" y1="1458.72" x2="815.88" y2="1445.73" gradientTransform="matrix(1, 0, 0, -1, 0, 1922)" gradientUnits="userSpaceOnUse"><stop offset="0" stop-color="#d7f2ff"/><stop offset="0.5" stop-color="#4fc1f3"/><stop offset="1" stop-color="#4097be"/></linearGradient><linearGradient id="linear-gradient-54" x1="815.88" y1="1452.34" x2="815.88" y2="1441.07" gradientTransform="matrix(1, 0, 0, -1, 0, 1922)" gradientUnits="userSpaceOnUse"><stop offset="0.1" stop-color="#d2f2ff"/><stop offset="1" stop-color="#37baf0"/></linearGradient><mask id="mask" x="804.96" y="463.23" width="21.7" height="9.03" maskUnits="userSpaceOnUse"><g id="mask0"><path class="cls-1" d="M823.08,464.59a.71.71,0,0,0-.6-.33h-13.2a.73.73,0,0,0-.6.33l-3,4.61a.69.69,0,0,0-.11.46h20.62a.75.75,0,0,0-.11-.46Z"/></g></mask><linearGradient id="linear-gradient-55" x1="824.02" y1="1456.87" x2="822.86" y2="1448.47" gradientTransform="matrix(1, 0, 0, -1, 0, 1922)" gradientUnits="userSpaceOnUse"><stop offset="0" stop-color="#d2eefc"/><stop offset="1" stop-color="#16adfa"/></linearGradient><linearGradient id="linear-gradient-56" x1="807.39" y1="1456.86" x2="808.82" y2="1447.1" xlink:href="#linear-gradient-55"/><linearGradient id="linear-gradient-57" x1="815.88" y1="1457.57" x2="815.88" y2="1452.64" gradientTransform="matrix(1, 0, 0, -1, 0, 1922)" gradientUnits="userSpaceOnUse"><stop offset="0" stop-color="#fff"/><stop offset="1" stop-color="#bee9ff"/></linearGradient><linearGradient id="linear-gradient-58" x1="811.52" y1="1454.93" x2="811.52" y2="1449.74" gradientTransform="matrix(1, 0, 0, -1, 0, 1922)" gradientUnits="userSpaceOnUse"><stop offset="0" stop-color="#fff"/><stop offset="1" stop-color="#d8f2ff"/></linearGradient><linearGradient id="linear-gradient-59" x1="808.74" y1="1458.77" x2="808.74" y2="1452.09" gradientTransform="matrix(1, 0, 0, -1, 0, 1922)" gradientUnits="userSpaceOnUse"><stop offset="0" stop-color="#f0faff"/><stop offset="1" stop-color="#e3f6ff"/></linearGradient><linearGradient id="linear-gradient-60" x1="821.95" y1="1456.83" x2="821.95" y2="1453.98" xlink:href="#linear-gradient-58"/></defs><g id="Layer_2" data-name="Layer 2"><path class="cls-2" d="M628-130H1889V1971H-457Z"/></g><g id="Layer_3" data-name="Layer 3"><path class="cls-3" d="M794.58,287.06v.29h-.06A.72.72,0,0,0,794.58,287.06Z"/><path class="cls-4" d="M741,287.81a.73.73,0,0,1-.69-.46C740.52,287.49,740.75,287.64,741,287.81Z"/><path class="cls-5" d="M565.86,281.75a.33.33,0,0,0-.34.05l.15-.17h0A.66.66,0,0,1,565.86,281.75Z"/><path class="cls-6" d="M566,281.8l-.07,0,0,0a.33.33,0,0,0-.34.05l.15-.17h0l.06-.06Z"/><path class="cls-7" d="M794.62,390.27a44.16,44.16,0,0,1-.31,4.44,96.55,96.55,0,0,1-2.61,14.85A85.5,85.5,0,0,1,778.64,438c-.3.46-.61.77-.92,1.23a33.88,33.88,0,0,1-2.15,2.75,3.44,3.44,0,0,1-.61.77c-1.08,1.22-2,2.45-3.08,3.52a7.19,7.19,0,0,1-1.07,1.07l-.92.92a9.49,9.49,0,0,1-1.39,1.22c-.3.31-.61.62-.92.92C753.3,463.61,733.17,472,706.6,472c-65.74,0-71-26.79-94.93-32.15a38.42,38.42,0,0,0-12.13-.61c-7.84.61-17.67,3.06-30.57,8-2,.76-3.84,1.53-5.84,2.14-.77.15-1.53.46-2.3.61-.16,0-.31,0-.31.16a55.21,55.21,0,0,1-11.37,2.29c-.46,0-.92.16-1.38.16h-.61a17.15,17.15,0,0,1-2.77.15,42.45,42.45,0,0,1-15.82-2.3,24.55,24.55,0,0,1-3.53-1.53c-.46-.3-.92-.46-1.39-.76a23.11,23.11,0,0,1-2-1.23,22.43,22.43,0,0,1-2.31-1.68,20.06,20.06,0,0,1-1.84-1.69,35,35,0,0,1-4.91-5.66,24.92,24.92,0,0,1-1.69-2.6,43.77,43.77,0,0,1-4.61-11c-.16-.61-.31-1.22-.46-1.83a56.55,56.55,0,0,1-1.54-8.89c-.15-1.53-.31-3.06-.31-4.59v-3.52a68,68,0,0,1,.62-9.65c.31-2,.46-3.82.92-5.66,2.46-12.86,7.68-25.42,15.36-34.91a232,232,0,0,1,21-22.66c1.23-1.22,2.62-2.45,3.84-3.67l.93-.92c.92-.77,1.68-1.53,2.61-2.3l.15-.15c.92-.92,2-1.69,2.92-2.6a210.59,210.59,0,0,1,50.54-32.16c1.68-.76,3.53-1.53,5.37-2.29.31-.16.77-.31,1.08-.46,1.23-.46,2.61-1.07,3.84-1.53.15,0,.15,0,.3-.16,2.16-.76,4.15-1.53,6.3-2.29,41-13.17,89.09-10.11,137.79,30.16,1.53,1.22,3.07,2.6,4.61,4,.3.31.61.46.92.76.77.62,1.38,1.23,2.15,1.84a3,3,0,0,0,.77.61c1.22,1.23,2.45,2.3,3.84,3.53,1.22,1.22,2.61,2.45,3.84,3.82,9.37,9.34,15.66,21.9,18.74,36A75.45,75.45,0,0,1,794.16,375,86.59,86.59,0,0,1,794.62,390.27Z"/><path class="cls-8" d="M769.89,325.2c-20.28-.46-35.33-1.84-35.33-3.52,0-.31.46-.46,1.07-.76,3.23-1.08,13.37-2.15,26.73-2.61.31.31.61.46.92.77.77.61,1.38,1.22,2.15,1.84a3.75,3.75,0,0,0,.77.61A20.35,20.35,0,0,0,769.89,325.2Z"/><path class="cls-8" d="M766.05,321.68h-.93c-11.21,0-21.35-.31-29.49-.76-11.06-.62-18-1.69-18-2.91,0-1.84,17.36-3.37,40.09-3.68,1.54,1.23,3.07,2.61,4.61,4,.31.31.61.46.92.77.77.61,1.38,1.22,2.15,1.84A1.1,1.1,0,0,0,766.05,321.68Z"/><path class="cls-9" d="M747.37,329.52V320a.75.75,0,0,1,.76-.75h.11a.75.75,0,0,1,.75.75v9.55a.76.76,0,0,1-.75.76h-.11A.76.76,0,0,1,747.37,329.52Z"/><path class="cls-9" d="M742.44,327.32v11.84a.76.76,0,0,1-.76.75H728.05a.76.76,0,0,1-.76-.75V327.32a.76.76,0,0,1,.76-.76h13.63A.76.76,0,0,1,742.44,327.32Z"/><path class="cls-10" d="M754.47,327.32v11.84a.76.76,0,0,1-.76.75H740.08a.76.76,0,0,1-.76-.75V327.32a.76.76,0,0,1,.76-.76h13.63A.76.76,0,0,1,754.47,327.32Z"/><path class="cls-10" d="M774.2,337.22H719.61v96.14H774.2Z"/><path class="cls-9" d="M742.44,337.22H687.85v96.14h54.59Z"/><path class="cls-11" d="M774.6,338.54H687.44a.75.75,0,0,1-.76-.75v-1.56a.75.75,0,0,1,.76-.75H774.6a.75.75,0,0,1,.75.75v1.56A.75.75,0,0,1,774.6,338.54Z"/><path class="cls-12" d="M765.74,385.29H753.25a2.35,2.35,0,0,1-2.36-2.34V370.52a2.35,2.35,0,0,1,2.36-2.34h12.49a2.35,2.35,0,0,1,2.36,2.34V383A2.35,2.35,0,0,1,765.74,385.29Z"/><path class="cls-12" d="M765.74,406.43H753.25a2.36,2.36,0,0,1-2.36-2.35V391.66a2.36,2.36,0,0,1,2.36-2.35h12.49a2.36,2.36,0,0,1,2.36,2.35v12.42A2.36,2.36,0,0,1,765.74,406.43Z"/><path class="cls-12" d="M709.48,392.84H697a2.36,2.36,0,0,1-2.37-2.35V378.07a2.36,2.36,0,0,1,2.37-2.35h12.49a2.36,2.36,0,0,1,2.36,2.35v12.42A2.37,2.37,0,0,1,709.48,392.84Z"/><path class="cls-12" d="M731.3,392.84H718.81a2.35,2.35,0,0,1-2.36-2.35V378.07a2.36,2.36,0,0,1,2.36-2.35H731.3a2.35,2.35,0,0,1,2.36,2.35v12.42A2.34,2.34,0,0,1,731.3,392.84Z"/><path class="cls-12" d="M709.48,413H697a2.36,2.36,0,0,1-2.37-2.35V398.24a2.36,2.36,0,0,1,2.37-2.35h12.49a2.36,2.36,0,0,1,2.36,2.35v12.42A2.38,2.38,0,0,1,709.48,413Z"/><path class="cls-12" d="M731.3,413H718.81a2.35,2.35,0,0,1-2.36-2.35V398.24a2.36,2.36,0,0,1,2.36-2.35H731.3a2.36,2.36,0,0,1,2.36,2.35v12.42A2.36,2.36,0,0,1,731.3,413Z"/><path class="cls-12" d="M720,417.73H708.72a1.07,1.07,0,0,0-1.06,1.06v14.57h13.39V418.79A1.07,1.07,0,0,0,720,417.73Z"/><path class="cls-13" d="M746.88,333.45H691.35v55.22h55.53Z"/><path class="cls-14" d="M712.07,370.58h6a10,10,0,0,0,10-10v-5.93a10,10,0,0,0-10-10h-6a10,10,0,0,0-10,10v5.93A10,10,0,0,0,712.07,370.58Z"/><path class="cls-15" d="M710.67,370.59h6a10,10,0,0,0,10-10v-5.93a10,10,0,0,0-10-10h-6a10,10,0,0,0-10,10v5.93A10,10,0,0,0,710.67,370.59Z"/><path class="cls-16" d="M604.76,415.69c.61,0,2.3-.31,2,.92,1.07.61,2.3.46,1.84,2.14-.15.61-.62,1.23-.77,1.84s.15,1.07.15,1.53a5.91,5.91,0,0,1,0,1.68c0,1.23.47,2.76-1.38,2.61-1.38,0-1.53-1.53-2.76-1.84-.77.77-.92.31-1.85-.15s-1.22-.31-1.84.46c-1.53,2-4.76-.31-6-2-.77-1.07-.46-1.37-.31-2.29.16-.77-.3-1.53,0-2.15.31-.91,1.69-.91,2.61-1.22,1.85-.61,3.54-1.38,5.53-1.38C602.76,415.84,604.14,416.15,604.76,415.69Z"/><path class="cls-16" d="M601.53,438h-2.61l.92-15.31h1.08V427l6.3-3.06-2.92,1.83s3.68.77,4.91-.46c0,0-1.38,1.53-5.37.92l-2.92,1.38Z"/><path class="cls-16" d="M598.77,423.34c.61,1.23,2.46-.46,3.07-.46a3.64,3.64,0,0,1,1.38.62,3.11,3.11,0,0,0,1.69.3c-.15.46.62,1.23,1.08,1.53s.77.16,1.38.31.31,0,.77.31c.77.45,1.38.76,2.15.15,1.07-.77.61-1.53.15-2.45-.3-.46-.3,0-.15-.61s.61-.92.46-1.69c-.15-1.07-1.23-1.22-2-1.83-.61-.46-.3-1.08-1.23-1.69s-1.53-.15-2.61-.15c0-1.07.62-2.14-.31-3.22-.3-.46-.76-.61-.92-1.07s0-.92-.61-1.38a2.77,2.77,0,0,0-1.54-.61c-.61,0-.61.31-1.07.46-.92.31-2-.77-3.23-.15a3.11,3.11,0,0,0-1.38,3.37c.15.46.46.3.15.91-.15.62-1.07,1.08-1.38,1.69a3.41,3.41,0,0,0-.46,2.45c0,.61.15.76-.15,1.22-.46.62-1.23.77-1.54,1.53a3,3,0,0,0,.31,2.3c.3.46,1.07.46,1.53.77-.61,1.22,1.23,1.53,2,1.53a2.32,2.32,0,0,0,2.15-1.08,2.67,2.67,0,0,0,.46-1.83c.31-.46-.46-.61-.15-1.23Z"/><path class="cls-17" d="M794.62,390.27c-1.69.92-3.54,1.53-5.07.92-.16,0-.31-.15-.46-.3a1.79,1.79,0,0,1-.92-.92c-.47-.46-.77-.92-1.23-1.08a2.64,2.64,0,0,0-2.31.31c-1.69.77-1.84,1.69-3.38.15a2.11,2.11,0,0,0-1.38.77l-.46.46c-.31.31-.61.76-.92,1.07s-.61.46-.92.77a3,3,0,0,1-1.23.3c-1.38,0-2-.3-2.31-.92,0-.15-.15-.15-.15-.3v-.16c-.31-.91,0-2.29,0-3.52a22.93,22.93,0,0,1,0-3.21,8.68,8.68,0,0,0,.31-2.76c-.16-1.22-.92-2-1.23-3.06,0-.15-.15-.15-.15-.31-.93-3.06,1.53-2.75,3.37-4-.61-1.68,1.08-1.83,2.46-1.83h1.23l.31-.16c.92.92,3.38.46,4.76.46,3.38,0,6.45,1.38,9.68,2.45C794.77,380.17,794.92,385.22,794.62,390.27Z"/><path class="cls-18" d="M785.56,414h4.91l-1.69-28.48h-2l.16,7.8-11.83-5.66,5.38,3.52s-6.76,1.38-9.07-.76c0,0,2.61,2.75,10.14,1.68l5.38,2.6Z"/><path class="cls-19" d="M794.62,390.27a44.16,44.16,0,0,1-.31,4.44h-.15a4.06,4.06,0,0,1-4-2.14,16.22,16.22,0,0,1-.61-1.53,2.89,2.89,0,0,1,0-2c.46-1.07,1.84-1.23,1.53-2.76-.3-.15-.3,0-.46.16l.31.15a1.48,1.48,0,0,1-1.84.76,10,10,0,0,1-2-.76,4.71,4.71,0,0,0-2-.77c-.76,0-1.84.77-2.61,1.08a7.7,7.7,0,0,1-3.22.61,3.61,3.61,0,0,1-.77,1.83l-.31.31a4,4,0,0,1-.92.77,6.53,6.53,0,0,1-2.46.46c-.61.15-.77,0-.92.3-.15,0-.15,0-.31.15a.15.15,0,0,0-.15.16h-.15c-1.39.76-2.46,1.53-4,.46-2-1.38-1.23-2.91-.46-4.6.46-1.07.62,0,.31-1.22-.16-1.07-1.08-1.69-.77-3.06.46-2.15,2.15-2.3,3.53-3.37a1.77,1.77,0,0,0,.77-1.07,3.91,3.91,0,0,1,1.38-2c1.85-1.07,2.92-.16,4.77-.31,0-1.22-.46-2.45-.46-3.67a2.88,2.88,0,0,1,.76-2.15c.62-.76,1.39-1.07,1.85-2,.46-1.22,0-1.68,1.23-2.6a4.56,4.56,0,0,1,2.76-1.23c1.08,0,1.08.62,1.84.92,1.69.62,3.54-1.22,5.69-.46a75.45,75.45,0,0,1,1.69,10.26A80.23,80.23,0,0,1,794.62,390.27Z"/><path class="cls-9" d="M581.75,434.67H531.52V390.43l25-27.26,25.19,27.26Z"/><path class="cls-11" d="M530.44,392l-2.61-2.3,28.73-31.85,28.57,31.39-2.61,2.45-26-28.63Z"/><path class="cls-11" d="M545.65,404.36v-5.21a3.69,3.69,0,0,0-7.37,0v5.21Z"/><path class="cls-11" d="M570.54,425.64v-9.95a6.92,6.92,0,0,0-13.83,0v9.95Z"/><path class="cls-11" d="M539.52,419.93a1.3,1.3,0,0,1,1.29-1.3h7.79a1.3,1.3,0,0,1,1.3,1.3v12.94a1.3,1.3,0,0,1-1.3,1.29h-7.79a1.29,1.29,0,0,1-1.29-1.29Z"/><path class="cls-20" d="M642.21,394.47h64.22a.76.76,0,0,0,.76-.75V392a.76.76,0,0,0-.76-.75H642.21a.76.76,0,0,0-.76.75v1.75A.75.75,0,0,0,642.21,394.47Z"/><path class="cls-21" d="M571.91,391.19v46H599s23.15,4.81,34.24,3.49v-7.57s0,7.57,0,7.57l0-52.51-32.2-31.83-1.48-1.47-.66.88-5.33,6.94Z"/><path class="cls-22" d="M603.33,399.07a2.59,2.59,0,0,0-2.6-2.59H581.26a2.6,2.6,0,0,0-2.6,2.59v37.52a2.6,2.6,0,0,0,2.6,2.59h19.47a2.59,2.59,0,0,0,2.6-2.59Z"/><path class="cls-22" d="M626.7,399.07a2.59,2.59,0,0,0-2.6-2.59h-13a2.6,2.6,0,0,0-2.6,2.59V412a2.59,2.59,0,0,0,2.6,2.58h13a2.58,2.58,0,0,0,2.6-2.58Z"/><path class="cls-23" d="M598.59,423.8a1.48,1.48,0,1,0-1.48-1.47A1.47,1.47,0,0,0,598.59,423.8Z"/><path class="cls-23" d="M632.8,391l0,.83.35,39.44,0,0c.08,0,0,9.87,0,9.87l60.55-3.9v-46l-7.68,0h-.17L643.72,391l-4.94,0h-2.71l-2.14,0Z"/><path class="cls-24" d="M663.05,410.85a9.74,9.74,0,0,0-19.47,0v14.82a.5.5,0,0,0,.57.5l18.52-2.32a.43.43,0,0,0,.38-.43Z"/><path class="cls-24" d="M684.47,408.68a7.79,7.79,0,0,0-15.58,0v12a.41.41,0,0,0,.46.41l14.81-1.88a.35.35,0,0,0,.31-.34Z"/><path class="cls-21" d="M598.93,353.78h64.55a.84.84,0,0,1,.58.24l36,35.76a.83.83,0,0,1-.59,1.41h-51.9L636.46,391a.84.84,0,0,1-.58-.24l-37.55-35.56A.82.82,0,0,1,598.93,353.78Z"/><path class="cls-25" d="M636.22,394.47h64.24a.76.76,0,0,0,.76-.75v-2a.76.76,0,0,0-.76-.75H636.22a.76.76,0,0,0-.75.75v2A.76.76,0,0,0,636.22,394.47Z"/><path class="cls-26" d="M598.51,353.78l6.13,6.1-32.73,31.31h-11Z"/><path class="cls-25" d="M635.38,394.33l-36.56-36a.45.45,0,0,0-.63,0L564.5,391.05a.43.43,0,0,1-.31.12H562a.44.44,0,0,1-.31-.75l36.55-36.35a.47.47,0,0,1,.64,0L636,390.82a.45.45,0,0,1,.12.31V394A.44.44,0,0,1,635.38,394.33Z"/><path class="cls-9" d="M662.8,442.42l.37.09a5.12,5.12,0,0,1,1.53-2.58A5.87,5.87,0,0,0,662.8,442.42Z"/><path class="cls-27" d="M599.54,439.27c-7.84.61-17.67,3.06-30.57,8-2,.76-3.84,1.53-5.84,2.14V429.93C573.42,435.13,585.87,438,599.54,439.27Z"/><path class="cls-9" d="M791.7,409.56A85.5,85.5,0,0,1,778.64,438c-.3.46-.61.77-.92,1.23a33.88,33.88,0,0,1-2.15,2.75,3.44,3.44,0,0,1-.61.77c-1.08,1.22-2,2.45-3.08,3.52a6.35,6.35,0,0,1-1.07,1.07l-.92.92a9.49,9.49,0,0,1-1.39,1.22c-.3.31-.61.62-.92.92C753.3,463.61,733.17,472,706.6,472c-65.74,0-71-26.79-94.93-32.15h.77c45.62.76,100.46-13.17,132.87-22.05,16.74-4.44,30-6.89,40.09-8,1.54-.15,2.92-.31,4.3-.46A11.31,11.31,0,0,0,791.7,409.56Z"/><path class="cls-27" d="M627.34,327.35a1.12,1.12,0,0,0-.61-.16.59.59,0,0,1-.47-.15"/><path class="cls-8" d="M600.76,327.35c0,.61-8.44,1.07-21.35,1.37-7.52.16-16.43.31-26.11.31h-7.68c.31-.31.62-.61.92-.92.92-.76,1.69-1.53,2.61-2.3h13.06C584.33,325.81,600.76,326.58,600.76,327.35Z"/><path class="cls-28" d="M579.57,328.88c0,1.83-16.28,3.21-37.79,3.52,1.23-1.23,2.61-2.45,3.84-3.68l.92-.91c.92-.77,1.69-1.54,2.61-2.3l.16-.15a30.12,30.12,0,0,1,3.68.15c3.08.15,5.84.3,8.45.46,10.14.61,16.9,1.53,18,2.6A.46.46,0,0,1,579.57,328.88Z"/><path class="cls-29" d="M562.67,325.36c0,.15-.15.3-.31.45a3,3,0,0,1-.76.46c-2.15.77-7.53,1.38-14.9,2,.92-.76,1.69-1.53,2.61-2.29l.15-.16c.92-.91,2-1.68,2.92-2.6C558.83,323.67,562.67,324.44,562.67,325.36Z"/><path class="cls-11" d="M765.28,321.07c-6-.31-9.53-.61-9.53-.92s2.77-.61,7.38-.92A27.36,27.36,0,0,1,765.28,321.07Z"/><path class="cls-8" d="M657.6,287.38c0,.46-9.83.92-22.89.92h-5.37c-7.84,0-14.9-.15-20.13-.3,1.23-.46,2.61-1.07,3.84-1.53h2.77c4,0,8.6-.16,13.36-.16,5.69,0,11.06,0,15.52.16C652.53,286.77,657.6,287.08,657.6,287.38Z"/><path class="cls-8" d="M645,286.47a.15.15,0,0,1-.15.15c-.61.61-4.61,1.22-10.6,1.53-1.53.15-3.07.15-4.91.31-3.84.15-8.15.15-12.6.15-2.92,0-5.84,0-8.45-.15.31-.16.77-.31,1.08-.46,1.23-.46,2.61-1.07,3.84-1.53.15,0,.15,0,.3-.16,2.15-.76,4.15-1.53,6.3-2.29C633.94,284.48,645,285.4,645,286.47Z"/><path class="cls-30" d="M634.25,285.55c0,.61-12.44.92-27.65.92h-3.68c1.68-.31,3.38-.77,5.22-1.07.31,0,.61-.16,1.07-.16a31.53,31.53,0,0,1,3.69-.61h2.61c9.06.15,16,.46,18,.77a.56.56,0,0,1,.46.15Z"/><path class="cls-11" d="M768.66,449.68l-.92.91c-14.29,13.17-34.41,21.59-61,21.59-65.74,0-71-26.79-94.92-32.15a38.8,38.8,0,0,0-12.14-.61c-7.83.61-17.67,3.06-30.57,8-2,.77-3.84,1.53-5.83,2.14-.77.16-1.54.46-2.31.62-.15,0-.31,0-.31.15a56,56,0,0,1-11.36,2.3c-.46,0-.93.15-1.39.15h-.61a17,17,0,0,1-2.76.15,42.27,42.27,0,0,1-15.83-2.3,22.92,22.92,0,0,1-3.53-1.53c-.46-.3-.92-.46-1.38-.76a23.36,23.36,0,0,1-2-1.23,22.34,22.34,0,0,1-2.3-1.68,18.75,18.75,0,0,1-1.85-1.68,35.55,35.55,0,0,1-4.91-5.67,23.91,23.91,0,0,1-1.69-2.6,44,44,0,0,1-4.61-11c-.15-.61-.31-1.22-.46-1.83h1.08c4,0,9.06.15,15.36.61h.76c12.29.92,28.88,3.21,50.54,8.27,11.06,2.6,24.42,5.51,39.17,8.42C653.45,448,703.84,455.8,745,452.74h.92c2.61-.15,5.07-.46,7.68-.77a2,2,0,0,0,.93-.15H755c.61,0,1.23-.15,1.84-.15l3.23-.46,3.22-.46c1.54-.31,3.23-.61,4.76-.92C768,449.68,768.35,449.68,768.66,449.68Z"/><path class="cls-9" d="M539.48,426.56c-.62.46-10.3,6.74-10.6,24a25.17,25.17,0,0,1-3.54-1.53c-.46-.31-.92-.46-1.38-.77a41.4,41.4,0,0,1,2.92-8.88A24.35,24.35,0,0,1,539.48,426.56Z"/><path class="cls-9" d="M526.73,439.57a63.77,63.77,0,0,1-1.54,9.65c-.46-.31-.92-.46-1.38-.77a23.4,23.4,0,0,1-2-1.22c5.68-11.94,2.92-19.91.46-23.89a12.92,12.92,0,0,0-2.46-3.06,14.65,14.65,0,0,1,3.08,3.06C526.42,427.78,527,434.06,526.73,439.57Z"/><path class="cls-9" d="M520.12,427.63a21,21,0,0,0-7.37,10.56,23,23,0,0,1-1.69-2.6A18.64,18.64,0,0,1,520.12,427.63Z"/><path class="cls-9" d="M519.51,445.39a18.75,18.75,0,0,1-1.85-1.68,19.86,19.86,0,0,0-.3-6.43A14,14,0,0,1,519.51,445.39Z"/><path class="cls-9" d="M534.1,451.82s7.22-3.83,5.38-17.3c0,0,4,10.41.3,18.22Z"/><path class="cls-9" d="M548.39,450.14c-.16.76-.31,1.68-.47,2.6h-.61a17,17,0,0,1-2.76.15c.76-2.6,4.3-14.54,1.69-20.51C546.24,432.38,549.77,438.19,548.39,450.14Z"/><path class="cls-9" d="M562.06,439c-2.15,0-8.91,1.07-12.6,13.63-.46,0-.92.15-1.38.15h-.62c.31-.61.62-1.53,1.08-2.6C550.38,445.54,554.84,438.5,562.06,439Z"/><path class="cls-9" d="M561.13,450c-.15,0-.3,0-.3.16a5.45,5.45,0,0,0-1.54-2.61A9.49,9.49,0,0,1,561.13,450Z"/><path class="cls-11" d="M770.81,447.38l-.92.92a9.49,9.49,0,0,1-1.39,1.22c-.3.31-.61.62-.92.92v-.61c-.46-11-6.6-15.46-7.37-15.92a17.75,17.75,0,0,1,8.75,9A14.46,14.46,0,0,1,770.81,447.38Z"/><path class="cls-11" d="M771.88,446.31a6.35,6.35,0,0,1-1.07,1.07l-.92.92a36.36,36.36,0,0,1-.77-5.36c-.31-4.75.46-10.56,4.76-13.47C773.42,429.93,767.58,435.59,771.88,446.31Z"/><path class="cls-11" d="M778.64,438c-.31.46-.61.77-.92,1.23a14.74,14.74,0,0,0-3.84-4.6A12.19,12.19,0,0,1,778.64,438Z"/><path class="cls-11" d="M764.05,451.52s-5.07-2.76-3.69-12.1c0,0-2.76,7.35-.15,12.71Z"/><path class="cls-11" d="M756.83,452.59s-3.38-9.95-1.23-14.7c0,0-3.07,4.9-1.07,15Z"/><path class="cls-11" d="M755.14,452.89s-3.23-11.33-10.91-10.41c0,0,6.61-1.07,9.53,10.57Z"/><path class="cls-11" d="M745.16,454.27s-1.23-3.83,1.53-6c0,0-2.76,2.14,0,5.66Z"/><path class="cls-31" d="M703.28,333.68a19.47,19.47,0,1,0-22.78,15.07,19.7,19.7,0,0,0,3.55.36l-5.28,8.06s.94.74,1.27.93c3.27-2.44,15.45-12.51,15.45-12.51h0A18.92,18.92,0,0,0,703.28,333.68Z"/><path class="cls-32" d="M702,332.38a19.47,19.47,0,1,0-22.77,15.08,19.5,19.5,0,0,0,3.55.35l-4,9.36L694.2,344.3h0A18.89,18.89,0,0,0,702,332.38Z"/><path class="cls-33" d="M562.36,318.76H543a16.23,16.23,0,1,0,0,32.45h6.81c4.8,3.55,14.33,10.68,15.11,10.4.55-.2,1.11-.46,1.11-.46s-6.29-6.79-8.2-9.94h4.56a16.23,16.23,0,1,0,0-32.45Z"/><path class="cls-34" d="M563.66,317.47h-19.4a16.23,16.23,0,1,0,0,32.45h6.12c4.8,3.54,16.06,11.83,15.62,11.23s-4.41-7.13-6.9-11.23h4.56a16.23,16.23,0,1,0,0-32.45Z"/><path class="cls-35" d="M623.15,326.25H611.88a9.84,9.84,0,0,0-.43,19.67h4.22l3,4.61.62-4.62h3.86a9.84,9.84,0,1,0,0-19.68Z"/><path class="cls-36" d="M623.15,325H611.88a9.84,9.84,0,0,0-.43,19.67h4.22l3.14,4.91.67-4.91h3.67a9.84,9.84,0,1,0,0-19.68Z"/><path class="cls-37" d="M615.93,334.84l2.32-2.25-.38-.41-.38-.45a.15.15,0,0,1,0-.17,1.1,1.1,0,0,1,.09-.14,6.41,6.41,0,0,1,1.25-1.19.82.82,0,0,1,.2-.12.1.1,0,0,1,.07,0l.89,0-.22.57c.59.58,1.17,1.17,1.74,1.79.14.15.27.31.4.47a.14.14,0,0,1,0,.17.86.86,0,0,1-.1.16,6.32,6.32,0,0,1-.76.79.27.27,0,0,1-.08.07l.23.1v.38l-.93,0h0s0,0-.09-.06l-.62-.57-.38-.39-.41.4-1,1.87h-.88l-.09-.09C616.48,335.43,616.21,335.13,615.93,334.84Z"/><path class="cls-38" d="M612.37,338.33c.87-.83,3.08-3,4-3.85h0v0h.93l-1.65,1.93.34.34a.22.22,0,0,0-.07.06c-.69.66-1.37,1.33-2,2l.08,0,.17.54h-1a.11.11,0,0,1-.07,0l-.12-.06a1.58,1.58,0,0,1-.55-.57.58.58,0,0,1-.06-.17A.14.14,0,0,1,612.37,338.33Z"/><path class="cls-39" d="M618.19,335.4l-.94-.95,0,0c-.87.85-3.09,3-4,3.86a.18.18,0,0,0,0,.18,1.77,1.77,0,0,0,.06.17,1.58,1.58,0,0,0,.55.57l.12.06a.21.21,0,0,0,.26-.05l3.9-3.82Z"/><path class="cls-40" d="M620.07,333.57l.38.39c.21.19.41.39.62.57s.13.1.26,0a3.53,3.53,0,0,0,.61-.47,6.29,6.29,0,0,0,.76-.79l.11-.16a.12.12,0,0,0,0-.17l-.4-.48c-.65-.72-1.33-1.41-2-2.08l-.31-.26a.12.12,0,0,0-.14,0l-.21.12a7,7,0,0,0-1.24,1.2.71.71,0,0,0-.1.14.11.11,0,0,0,0,.16c.12.15.24.3.38.45s.24.28.37.41c-.3.29-2,2-2.32,2.25l.92,1Z"/><path class="cls-41" d="M612.06,332.58a.14.14,0,0,1,.14-.12l.91,0-.06.36.19.1a.11.11,0,0,0,.11,0l.58-.35s.05,0,.05-.07c0-.25,0-.49,0-.73a.07.07,0,0,0-.05-.07l-.89-.44a.39.39,0,0,1-.14-.08.1.1,0,0,1,0-.16A.18.18,0,0,1,613,331a2.22,2.22,0,0,1,1-.23l1,0v0l-.37.1a1.11,1.11,0,0,1,.27.13,1.52,1.52,0,0,1,.87,1.41,1.72,1.72,0,0,0,.15.74.47.47,0,0,0,.06.09q1.07,1.1,2.16,2.19c.24.25.51.5.76.74a.59.59,0,0,0,.46.18h.2a2.15,2.15,0,0,1,1.06.19,1.78,1.78,0,0,1,.85.75v0l.36.16.66.75-.85,0a.55.55,0,0,1-.26-.08l-.91-.46c-.06,0-.1,0-.14,0s-.35.27-.53.4a.15.15,0,0,0-.06.15c0,.2,0,.39.05.59s0,.16.18.25l.77.38c.06,0,.11.06.11.13a.18.18,0,0,1-.1.15l-.13.06.18.19h-1a2.11,2.11,0,0,1-.86-.22,1.7,1.7,0,0,1-.89-1.09,1.91,1.91,0,0,1,0-.63.77.77,0,0,0-.25-.6c-.32-.33-.65-.66-1-1-.65-.67-1.3-1.32-1.94-2a.43.43,0,0,0-.27-.13h-.27l-.36,0a2.08,2.08,0,0,1-.83-.17,1.63,1.63,0,0,1-1-1.2C612.06,332.8,612.05,332.69,612.06,332.58Z"/><path class="cls-42" d="M614.8,334.29l.37,0h.26a.41.41,0,0,1,.27.13l1.94,2,1,1a.77.77,0,0,1,.25.6,2.23,2.23,0,0,0,0,.63,1.61,1.61,0,0,0,.89,1.09,1.86,1.86,0,0,0,1,.22,2,2,0,0,0,.84-.23.18.18,0,0,0,.1-.15c0-.07,0-.11-.11-.14l-.77-.38c-.18-.09-.16,0-.17-.25l-.06-.59a.13.13,0,0,1,.06-.14l.53-.4s.08,0,.14,0l1,.52c.12.06.17,0,.19-.09a1,1,0,0,0-.08-.48,1.7,1.7,0,0,0-1-1,2.2,2.2,0,0,0-1.05-.18h-.2a.67.67,0,0,1-.47-.18l-.76-.74c-.73-.73-1.44-1.47-2.16-2.2a.22.22,0,0,1,0-.08,1.57,1.57,0,0,1-.16-.74,1.53,1.53,0,0,0-.86-1.42,1.91,1.91,0,0,0-1.88,0,.2.2,0,0,0-.09.07.12.12,0,0,0,0,.17l.13.07.9.44a.08.08,0,0,1,0,.07l0,.73a.07.07,0,0,1,0,.07c-.2.11-.39.23-.58.35a.14.14,0,0,1-.11,0l-.93-.45-.06,0a.13.13,0,0,0-.19.11.91.91,0,0,0,0,.33,1.61,1.61,0,0,0,1,1.2A2.42,2.42,0,0,0,614.8,334.29Z"/><path class="cls-43" d="M613,331.27a.39.39,0,0,1-.14-.08.1.1,0,0,1,0-.16A.18.18,0,0,1,613,331a2.52,2.52,0,0,1,.48-.17,6.09,6.09,0,0,0,.1.73Z"/><path class="cls-44" d="M675.09,330.93l8-.66a1.08,1.08,0,0,0,1-1.15l-2-5.51c-.31-.84-.57-1-1.16-1l-8,.66a1.08,1.08,0,0,0-1,1.15s1.79,4.88,2,5.51S674.49,331,675.09,330.93Z"/><path class="cls-45" d="M676.2,330.84l8-.66a1.08,1.08,0,0,0,1-1.15s-1.68-4.67-2-5.51-.57-1-1.16-1l-8,.66-1.06.09s1.88,5.94,2.07,6.56S675.62,330.88,676.2,330.84Z"/><path class="cls-46" d="M676,327.28c2.59.92,5.46-.49,7.78-2.24.6,1.65,1.43,4,1.43,4a1.07,1.07,0,0,1-1,1.15l-5.78.48-3.35.27c-.58,0-1-.35-1.15-1l-.93-2.61A3.4,3.4,0,0,1,676,327.28Z"/><path class="cls-47" d="M686.23,331.83s0,.25,0,.54l.14,1.59a.54.54,0,0,1-.51.59l-.38,0-.23-2.69Z"/><path class="cls-48" d="M684.53,334.12l-.14-1.6c0-.3,0-.53,0-.53l.94-.08.23,2.68-.39,0A.56.56,0,0,1,684.53,334.12Z"/><path class="cls-49" d="M684.53,334.12l-.14-1.6c0-.3,0-.53,0-.53l.94-.08.23,2.68-.39,0A.56.56,0,0,1,684.53,334.12Z"/><path class="cls-50" d="M692.81,331.83l.14,1.6a.55.55,0,0,0,.59.5l.78-.07a.56.56,0,0,0,.51-.59l-.14-1.59c0-.31,0-.54,0-.54l-1.88.16S692.78,331.53,692.81,331.83Z"/><path class="cls-51" d="M675.09,333.31l.14,1.59a.56.56,0,0,0,.59.51l.78-.06a.56.56,0,0,0,.51-.59l-.14-1.59c0-.31,0-.54,0-.54l-1.88.15S675.06,333,675.09,333.31Z"/><path class="cls-52" d="M686.81,326l2.89-1.15a.91.91,0,0,0,.51-1.18L689,322.17c-.47-.61-.71-.69-1.19-.51l-2.9,1.15a.91.91,0,0,0-.51,1.19s.85,1.07,1.17,1.53A1,1,0,0,0,686.81,326Z"/><path class="cls-53" d="M685.9,325.85l4.37-1.73a.9.9,0,0,1-.57.76L686.8,326A.82.82,0,0,1,685.9,325.85Z"/><path class="cls-54" d="M684.76,322.94c.31-.05.54.11.9.58l1.17,1.53a.91.91,0,0,1-.26,1,1,1,0,0,1-.94-.55c-.31-.46-1.18-1.53-1.18-1.53A.92.92,0,0,1,684.76,322.94Z"/><path class="cls-55" d="M676.91,328.77l3.1.27a.91.91,0,0,0,1-.83s-.22-1.13-.34-1.88-.32-.94-.83-1l-3.1-.27a.91.91,0,0,0-1,.83s.28,1.33.34,1.88S676.4,328.73,676.91,328.77Z"/><path class="cls-56" d="M676.19,328.21l4.67.42a.92.92,0,0,1-.85.43l-3.1-.28A.86.86,0,0,1,676.19,328.21Z"/><path class="cls-57" d="M676.5,325.08c.29.11.43.34.54.92.13.75.34,1.89.34,1.89a.9.9,0,0,1-.71.8,1,1,0,0,1-.59-.91c-.08-.55-.34-1.89-.34-1.89A.91.91,0,0,1,676.5,325.08Z"/><path class="cls-58" d="M675.39,333.72l15.28-1.26a1.08,1.08,0,0,0,1-1.15l-.23-2.42a1.08,1.08,0,0,0-1.16-1L675,329.17a1.06,1.06,0,0,0-1,1.14l.23,2.43A1.08,1.08,0,0,0,675.39,333.72Z"/><path class="cls-59" d="M686.4,332.8l8.11-.68a1,1,0,0,0,.94-1.1l-.24-2.52a1,1,0,0,0-1.12-.93l-8.11.67-1,.08.42,4.56Z"/><path class="cls-60" d="M685.19,330.84c5.2,1.54,8.29-.11,10-2.09l.21,2.28a1,1,0,0,1-.94,1.11l-3.85.32-5.19.43h-.11l-10,.83a1.07,1.07,0,0,1-1.16-1L674,331C676.08,329.58,679.67,329.18,685.19,330.84Z"/><path class="cls-46" d="M687.86,323.21a2.66,2.66,0,0,1,2.39.71v.2a.61.61,0,0,1-.06.24l0,.1-.13.18s0,0-.06.08a1.06,1.06,0,0,1-.26.17L686.8,326a.83.83,0,0,1-.29.06h-.1a.34.34,0,0,1-.17-.05l-.1,0s0,0,0,0a.21.21,0,0,1-.08-.06.16.16,0,0,1-.08-.06l-.06-.06a2.65,2.65,0,0,1-.21-.26l-.17-.23C686.18,324.65,686.84,323.55,687.86,323.21Z"/><path class="cls-61" d="M561.84,336.62l-11.55-.73c-.86-.06-1.15-.76-1.47-1.66l-1.35-4.4a1.57,1.57,0,0,1,1.67-1.45l14,.88a1.57,1.57,0,0,1,1.46,1.66l-1.09,4.25C563.09,336,562.71,336.68,561.84,336.62Z"/><path class="cls-62" d="M559.84,342.11l-9.57-.61a3.52,3.52,0,0,1-3.3-3.74l.34-5.24a3.53,3.53,0,0,1,3.75-3.28l9.57.61a3.52,3.52,0,0,1,3.3,3.74l-.34,5.24A3.55,3.55,0,0,1,559.84,342.11Z"/><path class="cls-63" d="M559.1,342.05,546,341.22a1.56,1.56,0,0,1-1.46-1.65l.59-9.17a1.56,1.56,0,0,1,1.66-1.45l13.07.83a1.56,1.56,0,0,1,1.46,1.65l-.68,10.71S560,342.11,559.1,342.05Z"/><path class="cls-64" d="M561.34,331.43a1.57,1.57,0,0,0-1.47-1.65l-14.1-.91a1.56,1.56,0,0,0-1,1.37l.54,4.36c.31.9.59,1.6,1.46,1.66l12.63.81c.85.05,1.24-.65,1.66-1.46l.07-.29Z"/><path class="cls-65" d="M553.32,337.32a.63.63,0,0,1-.61-.69l.06-1a.66.66,0,0,1,1.31.09l-.06,1A.64.64,0,0,1,553.32,337.32Z"/><path class="cls-66" d="M558.91,336.44l-12.36-.79c-.85-.06-1.15-.76-1.47-1.66l-.53-4.36a1.57,1.57,0,0,1,1.66-1.46l14,.89a1.56,1.56,0,0,1,1.46,1.65L560.58,335C560.15,335.79,559.78,336.49,558.91,336.44Z"/><path class="cls-60" d="M560.21,329.08l-1.65-.11c1.16,9.9-4.26,10.36-10,9a5.62,5.62,0,0,0-3.9.35l-.08,1.25a1.57,1.57,0,0,0,1.47,1.65l13.06.83c.86.06,1.56.09,1.56.09l.65-10,.37-1.44A1.59,1.59,0,0,0,560.21,329.08Z"/><path class="cls-67" d="M553,337a.63.63,0,0,1-.61-.7l.06-1a.66.66,0,1,1,1.31.09l0,1A.67.67,0,0,1,553,337Z"/><path class="cls-68" d="M558.59,329l-1.49-.09.13-1.95a.19.19,0,0,0-.19-.2l-4.38-.28a.2.2,0,0,0-.21.19l-.13,2-1.5-.09.13-2a1.69,1.69,0,0,1,1.8-1.56l4.38.28a1.69,1.69,0,0,1,1.58,1.78Z"/><path class="cls-69" d="M557.62,328.91l-1.5-.09.13-1.95a.19.19,0,0,0-.19-.2l-4.39-.28a.18.18,0,0,0-.2.18l-.13,2-1.5-.1.13-1.95a1.69,1.69,0,0,1,1.8-1.56l4.38.27a1.7,1.7,0,0,1,1.58,1.79Z"/><path class="cls-43" d="M801.78,105.1a7,7,0,1,0-7-7A7,7,0,0,0,801.78,105.1Z"/><path class="cls-43" d="M907.87,170a7,7,0,1,0-7-7A7,7,0,0,0,907.87,170Z"/><path class="cls-43" d="M686,540a7,7,0,1,0-7-7A7,7,0,0,0,686,540Z"/><path class="cls-43" d="M554.52,255.91a7,7,0,1,0-7-7A7,7,0,0,0,554.52,255.91Z"/><path class="cls-70" d="M816.54,208.51A60.35,60.35,0,0,1,807.81,231c-.11.11-.21.33-.33.44s-.11.11-.11.23l-.67,1-.07.11a5,5,0,0,1-.7.89l-.11.12c-.45.55-.89,1.11-1.33,1.66a.11.11,0,0,1-.11.11.11.11,0,0,1-.12.11c-.33.44-.66.78-1,1.22s-.55.67-.88,1-.44.56-.67.78l-.1.11-.37.37-1,1c-.44.45-1,.89-1.44,1.33s-.77.78-1.22,1.11a6.16,6.16,0,0,0-1.22,1.11,5.52,5.52,0,0,1-1.33,1,1.07,1.07,0,0,1-.22.15,46.89,46.89,0,0,1-5.44,3.52,8.75,8.75,0,0,1-1.44.77l-2,1h-.11c-.55.23-1.11.56-1.66.78a1.51,1.51,0,0,1-.67.22,19.12,19.12,0,0,1-2.33.89c-.44.11-.88.33-1.33.45a1.6,1.6,0,0,1-.78.21,12.35,12.35,0,0,1-2,.56,12.22,12.22,0,0,1-2.22.55h-.22c-1.56.34-3.21.67-4.88.9h-.11a.76.76,0,0,0-.45.1c-.44.11-1,.11-1.44.23-.62.09-1.24.16-1.87.22l-.49.05c-2.34.22-4.71.28-7.28.28h-2.55c-3.54-.05-6.8-.22-9.82-.5l-1-.1a91.44,91.44,0,0,1-10-1.52l-.73-.16A64.66,64.66,0,0,1,721.15,249a.53.53,0,0,0-.17-.08c-1.49-.69-2.86-1.4-4.16-2.12a90.36,90.36,0,0,1-8-5.18l-.73-.51a58.53,58.53,0,0,0-8.77-5.5l-.33-.16-.18-.08a24.59,24.59,0,0,0-2.95-1.1c-.61-.18-1.23-.35-1.88-.49l-.14,0-.74-.14c-.66-.12-1.32-.21-2-.28s-1.34-.11-2-.13c-.54,0-1.1,0-1.67,0a42.73,42.73,0,0,0-6.28.73c-1,.18-2,.4-3,.65q-4,.94-8.8,2.61l-.68.24-.22.07a12.37,12.37,0,0,0-1.78.7c-.2.07-.44.18-.67.27h0a3.63,3.63,0,0,1-.43.18c-.1,0-.21.11-.33.11a60.18,60.18,0,0,1-6.58,2.18,45.22,45.22,0,0,1-9.66,1.55c-.55,0-1.08,0-1.61,0h-2a5.36,5.36,0,0,1-1.32-.11c-.56-.11-1-.11-1.45-.22h-.22c-.44-.11-.89-.11-1.33-.22s-.88-.22-1.44-.33h-.11a.35.35,0,0,0-.13-.05c-.18-.07-.36-.09-.54-.18-13-4.28-18.21-18.42-17.49-33.36.51-10.66,4-21.71,10-29.9.41-.57.84-1.13,1.28-1.68a167.11,167.11,0,0,1,19.88-20.54c3.52-3.07,7.29-6.1,11.28-9,1.44-1,2.77-2,4.33-3,.44-.34,1-.67,1.44-1,1.44-.88,2.88-1.88,4.43-2.77.86-.51,1.72-1,2.6-1.52,13.8-7.94,29.48-13.77,46.3-14.93a87.49,87.49,0,0,1,33.93,4.34c11.54,3.82,23.35,10.27,35.23,20q5.77,4.74,11.57,10.54a44.55,44.55,0,0,1,8.4,12.15C817.17,181.77,818.87,195.43,816.54,208.51Z"/><path class="cls-71" d="M689,233.19c.71,0,1.39.06,2,.13s1.37.16,2,.28l.74.14.14,0c.65.14,1.27.31,1.88.49a24.59,24.59,0,0,1,2.95,1.1l.18.08.33.16a58.53,58.53,0,0,1,8.77,5.5l.73.28,11.85,4.5-11.85-9-9.5-7.19L696,227.23,694,225.68l-3.16-2.4-1.8-1.36-5.1-3.87-1.8-1.36-1.05-.79-3.3-2.51-.17-.13-8.92-6.75-9.8-7.42-2.63-2-25-18.94c-6,8.19-9.49,19.24-10,29.9l23.31,8.87h0l1,.37,2,.75.06,0,1.3.49L678,229.66l3,1.15,6.28,2.39Z"/><path class="cls-71" d="M720.65,245.88l-68.27-89.94c3.52-3.07,7.29-6.1,11.28-9,1.44-1,2.77-2,4.33-3,.44-.34,1-.67,1.44-1,1.44-.88,2.88-1.88,4.43-2.77.86-.51,1.72-1,2.6-1.52Z"/><path class="cls-71" d="M756.69,128.06l-36,117.82,2.11-122.16A87.49,87.49,0,0,1,756.69,128.06Z"/><path class="cls-71" d="M811.89,170.75l-91.24,75.13,71.27-97.82q5.77,4.74,11.57,10.54A44.55,44.55,0,0,1,811.89,170.75Z"/><path class="cls-71" d="M816.54,208.51A60.35,60.35,0,0,1,807.81,231c-.11.11-.21.33-.33.44s-.11.11-.11.23l-.67,1-.07.11-86,13.12Z"/><path class="cls-72" d="M689,233.19c.71,0,1.39.06,2,.13s1.37.16,2,.28l.74.14.14,0c.65.14,1.27.31,1.88.49a24.59,24.59,0,0,1,2.95,1.1l.18.08.33.16V223.28H678v11.3c1.05-.25,2.06-.47,3-.65a42.73,42.73,0,0,1,6.28-.73Z"/><path class="cls-72" d="M673.8,227.23l14.86-18.85,14.86,18.85Z"/><path class="cls-72" d="M762.11,223.28H740.82v23.51h21.29Z"/><path class="cls-72" d="M736.61,227.23l14.85-18.85,14.86,18.85Z"/><path class="cls-73" d="M681.05,213.26v20.67c-1,.18-2,.4-3,.65q-4,.94-8.8,2.61l-.68.24-.22.07a12.37,12.37,0,0,0-1.78.7c-.2.07-.44.18-.67.27h0a3.63,3.63,0,0,1-.43.18c-.1,0-.21.11-.33.11a60.18,60.18,0,0,1-6.58,2.18,45.22,45.22,0,0,1-9.66,1.55V213.26Z"/><path class="cls-73" d="M678.47,206.51H651.94l.71,11.54H686Z"/><path class="cls-73" d="M651.94,206.51h26.53l-1.21,11.54H645.07Z"/><path class="cls-73" d="M643.85,218.08,657,195.87l13.09,22.21Z"/><path class="cls-73" d="M759.22,246.79h32.19V213.26H759.22Z"/><path class="cls-73" d="M761.79,206.51h26.53l-.69,11.54H754.3Z"/><path class="cls-73" d="M788.32,206.51H761.79L763,218.05h32.19Z"/><path class="cls-73" d="M796.41,218.08l-13.09-22.21-13.11,22.21Z"/><path class="cls-70" d="M729.51,207.07v39.72H716.82a90.36,90.36,0,0,1-8-5.18l-.73-.51a58.53,58.53,0,0,0-8.77-5.5l-.33-.16-.18-.08a24.59,24.59,0,0,0-2.95-1.1c-.62-.18-1.24-.35-1.88-.49l-.14,0-.74-.14c-.66-.12-1.32-.21-2-.28s-1.34-.11-2-.13V207l1.22-1.22,9.86-9.82,8.09-8.08,1.09-1.08,1.07,1.09L721.46,199Z"/><path class="cls-74" d="M749.76,206.28H729.51v40.5h20.25Z"/><path class="cls-73" d="M712.36,185.87l-3.11-3.11-24.84,24.85,3.1,3.11Z"/><path class="cls-73" d="M731,210.73l3.11-3.11-24.85-24.85-3.1,3.11Z"/><path class="cls-75" d="M731,210.72l3.1-3.11h19.45l-3.11,3.11Z"/><path class="cls-72" d="M709.26,182.76H728.7l24.85,24.85H734.1Z"/><path class="cls-76" d="M687.51,210.72H689v-1.49Z"/><path class="cls-77" d="M689,211.58l20.26-20.18,20.25,20.18-.07-2.41L709.25,189,689,209.23Z"/><path class="cls-78" d="M729.51,211.58l.71.81h19.54v-1.67H731l-1.56-1.55Z"/><path class="cls-73" d="M708.8,216.81v24.8l-.73-.51a58.53,58.53,0,0,0-8.77-5.5l-.33-.16-.18-.08a24.59,24.59,0,0,0-2.95-1.1c-.62-.18-1.23-.35-1.88-.49v-17Z"/><path class="cls-73" d="M725.85,216.81H711v14.85h14.85Z"/><path class="cls-75" d="M746.21,216.81H733.07v14.85h13.14Z"/><path class="cls-79" d="M794.84,244.79a46.89,46.89,0,0,1-5.44,3.52,8.75,8.75,0,0,1-1.44.77l-2,1h-.11c-.55.23-1.11.56-1.66.78a1.51,1.51,0,0,1-.67.22,19.12,19.12,0,0,1-2.33.89c-.44.11-.88.33-1.33.45a1.6,1.6,0,0,1-.78.21,12.35,12.35,0,0,1-2,.56,12.22,12.22,0,0,1-2.22.55h-.22c-1.56.34-3.21.67-4.88.9h-.11a.76.76,0,0,0-.45.1c-.44.11-1,.11-1.44.23-.62.09-1.24.16-1.87.22l-.49.05c-2.34.22-4.71.28-7.28.28h-2.55c-3.54-.05-6.8-.22-9.82-.5l-1-.1a91.44,91.44,0,0,1-10-1.52l-.73-.16A64.66,64.66,0,0,1,721.15,249a.53.53,0,0,0-.17-.08c-1.49-.69-2.86-1.4-4.16-2.12h8.59c13.84,0,36.41-3.07,54.43-3.07A107.8,107.8,0,0,1,794.84,244.79Z"/><path class="cls-80" d="M710.55,255.91l-5-34-16.18,3.26,3.37,30.7Z"/><path class="cls-81" d="M696.12,193.13s10.35,6,13.37,31.83l-19.29,6.22Z"/><path class="cls-82" d="M680.2,173.15l-.43,16.8L662,192l3.16-30.9Z"/><path class="cls-83" d="M680,182.66s-12.3-1.49-13.54-12.65l13.76,5Z"/><path class="cls-84" d="M696.12,193.13c-4.21-3.2-12.59-4.8-12.59-4.8l-22.74,0c-11.7.91-12.79,5.17-12.79,5.17l-6.9,62.39h57Z"/><path class="cls-82" d="M655.75,189.05a70.56,70.56,0,0,1,27.77-.72s-3.2,10-10.45,9.24S655.75,189.05,655.75,189.05Z"/><path class="cls-82" d="M626.17,254.37l7.8-34.21,20.72,1.2-14.12,37.35a7.54,7.54,0,0,1-14.4-4.34Z"/><path class="cls-81" d="M653.07,189.8s-22.34,3-25.17,35.5l28,9.59,2-26.49Z"/><path class="cls-82" d="M676.34,256.09l-41.09,7.31c-3.23,1-7.75-2.14-8.65-5.39-1-3.61,1.49-9.9,5.22-10.28l42.27,1.63Z"/><path class="cls-82" d="M674.09,249.36s18.66-4.46,18.66,6.73H676.34Z"/><path class="cls-85" d="M724,251.64a6.16,6.16,0,0,0-5.06,0,40.18,40.18,0,0,0-.09,4.29h12.78c0-.33,0-.65,0-.93a2.73,2.73,0,0,0-1.48-2.43,2.79,2.79,0,0,0-2.15-.28A5.45,5.45,0,0,0,724,251.64Z"/><path class="cls-85" d="M712.73,255.91h8.5c-.77-3.37-2.34-4.28-2.34-4.28C713.41,250.87,712.8,255,712.73,255.91Z"/><path class="cls-82" d="M685,143.6s3.61,7.55,2.61,10.84-2.69,8.18-1.61,12.5,4.5,14-3.14,17-18.56,3.61-22.57-5.1-3.64-10.06-3.64-10.06-6.69,1.51-6.68-1.27-2.09-6.51,1.34-7.9.77-11.77.77-11.77l7.91-7.09,18-3.23Z"/><path class="cls-86" d="M661.17,144s-7.54,5-6.58,8.2A55.47,55.47,0,0,1,657,162.82s-5.27-3.5-6.19-2.23-.46,0-.46,0-4.95-6.61-4.81-9.66.6-10.59.6-10.59.07,2.89,1.76,2.75a13.34,13.34,0,0,1,6.14-8.36c5.46-3.34,19.32-4.43,19.32-4.43s12.53.59,14-1.53c0,0,1.72,4.41-1,7.66s3.7,1.43,3.7,1.43a6.48,6.48,0,0,1-5.05,6.47C679.63,145.94,661.17,144,661.17,144Z"/><path class="cls-86" d="M681.83,154l.27.07c2.35-.39,5.21,1.06,5.26,1a.33.33,0,0,0,.46-.17.55.55,0,0,0-.27-.54,10.81,10.81,0,0,0-5.66-1.09.29.29,0,0,0-.19.43A.21.21,0,0,0,681.83,154Z"/><path class="cls-86" d="M675.72,175.53a.14.14,0,0,0-.13.13.28.28,0,0,0,.13.45c4.32,5.28,8.63,1.09,8.82,1a.37.37,0,0,0-.19-.71c-.06,0-4.7,1.29-8.24-1A.77.77,0,0,0,675.72,175.53Z"/><path class="cls-86" d="M678.31,153.65a.2.2,0,0,0,.1-.24c0-.29-.14-.54-.43-.52s-5.32-.46-8.88,1.71a.51.51,0,0,0-.2.69.51.51,0,0,0,.69.19c3.3-2.06,8.22-1.61,8.22-1.61Z"/><path class="cls-86" d="M681.39,172.54a.09.09,0,0,0,.11-.08l1.77-1.43-2.47-7.76a.51.51,0,0,0-.6-.36c-.3.15-.43.41-.36.6l2.28,7.09-1.24.94a.55.55,0,0,0-.1.73C681,172.58,681.2,172.61,681.39,172.54Z"/><path class="cls-82" d="M763.27,205.42c4.44,2.71,5.52,15.44,0,26.12s-7.75,23.39-15.9,21.7-4.29-9.47-1.79-11.46,3.88-21.48,5.32-25.57S758.83,202.72,763.27,205.42Z"/><path class="cls-82" d="M717.53,244.72c.07.08-6.73,3-6.73,3s-7.1,1.32-8.33,1.9-1.28,1-1.28,1-.86.38-.69,1.17c.2,1,7.82.87,7.82.87s6.84.52,7.91.4,16-2.11,16-2.11L730,243.87s-2.49-1.61-4.35-2.76-8.71-.52-10-.82c-2.48-.54-4.26-1.26-4.7-.76s-.58,2.33,1.11,3.28C713.41,243.61,717.24,244.43,717.53,244.72Z"/><path class="cls-87" d="M701.24,250.57a.49.49,0,0,0-.06.12,1.22,1.22,0,0,0-.28.18.93.93,0,0,0,.6,1c.75.22,11-.61,12.19-.71v-.28c-4.57.36-11.55.87-12.08.71S701.19,250.77,701.24,250.57Z"/><path class="cls-87" d="M717.53,244.73s-.07.05-.22.13l2.8.31,0-.27-3-.33A1.13,1.13,0,0,1,717.53,244.73Z"/><path class="cls-82" d="M727.91,243.4a90.14,90.14,0,0,0,9.68-.08c3.91-.39,23.91-5.09,27.25-4s5.24,5.58,4.9,8.44-2.8,4.64-6.22,5.14a110.74,110.74,0,0,1-19.08,0c-6.19-.69-16.92-2.35-16.92-2.35Z"/><path class="cls-82" d="M767.11,197.79l3.16-6.22,9.05.23,4.07,11.3-2.6,4.07h-9.27l-6.67-2.6,1.8-4.18Z"/><path class="cls-88" d="M747.89,176.42a8.78,8.78,0,0,1,1.24-15.6,24.27,24.27,0,0,1,.23-2.83c1.58-9.72,11.3-16.28,22-15a11.31,11.31,0,0,1,11-4,11.63,11.63,0,0,1,8.7,6.22,14.86,14.86,0,0,1,3.17.34c.56.11,1.24.22,1.81.34a7.44,7.44,0,0,1,5-.8,8.29,8.29,0,0,1,6.79,8.26,17.11,17.11,0,0,1,3.84,12.43,9.71,9.71,0,0,1,5.76,10.74,9.94,9.94,0,0,1-8.81,8.37,7.13,7.13,0,0,1,0,3,8.37,8.37,0,0,1-9.5,7.12.42.42,0,0,1-.34-.11,9.48,9.48,0,0,1-9,4c-5.09-.79-8.6-5.88-7.69-11.31a10.12,10.12,0,0,1,3.73-6.33A19.88,19.88,0,0,1,779,178a21.7,21.7,0,0,1-5.43,1.59,9.43,9.43,0,0,1,.57,5.31,9.69,9.69,0,0,1-10.86,8.25,9.29,9.29,0,0,1-6.67-4.86,9.36,9.36,0,0,1-2.48,0,8.37,8.37,0,0,1-6.67-9.84A3.14,3.14,0,0,1,747.89,176.42Z"/><path class="cls-89" d="M772.31,200.84a18.58,18.58,0,0,0,21.14-15.38l1.24-7.57a9.19,9.19,0,0,0-7.57-10.51l-18.32-2.94A9.19,9.19,0,0,0,758.29,172L757,179.59A18.54,18.54,0,0,0,772.31,200.84Z"/><path class="cls-90" d="M781.24,183.2a4,4,0,0,1,3.5,4.75,4.16,4.16,0,0,1-4.86,3.39,4,4,0,0,1-3.5-4.75A4.09,4.09,0,0,1,781.24,183.2Z"/><path class="cls-90" d="M759.19,181.85a3.34,3.34,0,0,0-2.37.45,21,21,0,0,0,1,6.56h.22a3.61,3.61,0,0,0,4.18-2.94A3.55,3.55,0,0,0,759.19,181.85Z"/><path class="cls-88" d="M794,181.17a6.3,6.3,0,1,1-7.12,5.2A6.22,6.22,0,0,1,794,181.17Z"/><path class="cls-88" d="M792.66,162.06a8.08,8.08,0,0,1,6.55,9.27,7.88,7.88,0,0,1-9.15,6.67,8.08,8.08,0,0,1-6.56-9.27A8.18,8.18,0,0,1,792.66,162.06Z"/><path class="cls-91" d="M763.94,161.27l15.38,1.81a1.81,1.81,0,0,1,1.47,2l-.46,4.19a1.76,1.76,0,0,1-1.92,1.58L763,169.07a1.79,1.79,0,0,1-1.47-2l.45-4.19A1.93,1.93,0,0,1,763.94,161.27Z"/><path class="cls-88" d="M763.94,158.9l14.58,1.69-1,8.71a2.7,2.7,0,0,1-3.06,2.37l-9.27-1.13a2.86,2.86,0,0,1-2.37-3Z"/><path class="cls-43" d="M800.34,155.17a4.24,4.24,0,0,1,2.15,3.05,10,10,0,0,1,.11,4.86,7,7,0,0,1-2.14,3.84,2.86,2.86,0,0,1-3.06.68,4.26,4.26,0,0,1-2.14-3,9.93,9.93,0,0,1-.12-4.86,7.11,7.11,0,0,1,2.15-3.85A2.66,2.66,0,0,1,800.34,155.17Zm1.13,4a3.21,3.21,0,0,0-1.58-2.14,1.93,1.93,0,0,0-2.15.45,4.82,4.82,0,0,0-1.47,2.82,7.42,7.42,0,0,0,0,3.51,3.21,3.21,0,0,0,1.59,2.15,1.92,1.92,0,0,0,2.14-.46,4.77,4.77,0,0,0,1.47-2.82A6.15,6.15,0,0,0,801.47,159.12Z"/><path class="cls-43" d="M757.5,151.21a4.07,4.07,0,0,1,2,2.6,8.28,8.28,0,0,1,.12,4.07,5.55,5.55,0,0,1-1.93,3.28,2.61,2.61,0,0,1-2.82.45,4.05,4.05,0,0,1-2-2.6,8.17,8.17,0,0,1-.11-4.07,5.59,5.59,0,0,1,1.92-3.28A2.59,2.59,0,0,1,757.5,151.21Zm1.13,3.28a2.44,2.44,0,0,0-1.47-1.81,2,2,0,0,0-2,.34,4.41,4.41,0,0,0-1.35,2.37,5.13,5.13,0,0,0,.11,2.94,2.46,2.46,0,0,0,1.47,1.81,2,2,0,0,0,2-.34,4.42,4.42,0,0,0,1.36-2.37A6.43,6.43,0,0,0,758.63,154.49Z"/><path class="cls-43" d="M752.86,176.53a2.75,2.75,0,0,1,1.47,1.81,5.78,5.78,0,0,1,.11,2.83,3.47,3.47,0,0,1-1.35,2.26,2,2,0,0,1-1.92.34A2.75,2.75,0,0,1,749.7,182a5.89,5.89,0,0,1-.12-2.83,3.55,3.55,0,0,1,1.36-2.26A1.57,1.57,0,0,1,752.86,176.53Zm.79,2.26a2.27,2.27,0,0,0-1-1.24,1.2,1.2,0,0,0-1.36.23,2.46,2.46,0,0,0-.9,1.58,4,4,0,0,0,0,2,2.26,2.26,0,0,0,1,1.25,1.22,1.22,0,0,0,1.36-.23,2.46,2.46,0,0,0,.9-1.58A5.82,5.82,0,0,0,753.65,178.79Z"/><path class="cls-43" d="M799.1,182.19a3.55,3.55,0,0,1,1.58,2.48,7.55,7.55,0,0,1-.22,3.85,6.68,6.68,0,0,1-1.81,2.94,2.29,2.29,0,0,1-2.49.34,3.59,3.59,0,0,1-1.58-2.49,7.55,7.55,0,0,1,.22-3.85,6.68,6.68,0,0,1,1.81-2.94A2.52,2.52,0,0,1,799.1,182.19Zm.68,3.16a3,3,0,0,0-1.13-1.81,1.38,1.38,0,0,0-1.7.23,4.36,4.36,0,0,0-1.35,2.15,4.85,4.85,0,0,0-.12,2.82,3,3,0,0,0,1.13,1.81,1.36,1.36,0,0,0,1.7-.23,4.45,4.45,0,0,0,1.36-2.14A6.26,6.26,0,0,0,799.78,185.35Z"/><path class="cls-90" d="M766.32,190.44a2,2,0,0,0-.23.9,3.33,3.33,0,0,0,3.17,3.28,3.23,3.23,0,0,0,3.61-2.71,2.58,2.58,0,0,0-.11-.91Z"/><path class="cls-92" d="M772.87,190.89l-6.55-.45a.64.64,0,0,0-.12.45,13.46,13.46,0,0,0,4.64.68,16.4,16.4,0,0,1,2.15-.11A.83.83,0,0,1,772.87,190.89Z"/><path class="cls-86" d="M768,178.23a.6.6,0,0,1-.56-.34,4.07,4.07,0,0,0-1.81-2.49,3.85,3.85,0,0,0-2.94-.45,4.85,4.85,0,0,0-1.92,1.13c-.23.23-.57.23-.68,0s-.23-.56,0-.68a5,5,0,0,1,2.37-1.35,4.82,4.82,0,0,1,3.73.56,5.14,5.14,0,0,1,2.26,3c.12.23-.11.46-.45.57Z"/><path class="cls-86" d="M766.77,181.17a.63.63,0,0,1-.57-.34,1.46,1.46,0,0,0-1.69-1.13,1.07,1.07,0,0,0-.57.45.52.52,0,0,1-.68.11.53.53,0,0,1-.11-.67,2.14,2.14,0,0,1,1.13-.8,2.43,2.43,0,0,1,3.05,1.7c.12.23-.11.57-.34.68Z"/><path class="cls-86" d="M777.62,182.52a.61.61,0,0,1-.56-.33,2.75,2.75,0,0,0-.34-.57,1.48,1.48,0,0,0-2,.34.52.52,0,0,1-.68.11.54.54,0,0,1-.11-.68,2.43,2.43,0,0,1,3.5-.45,2.33,2.33,0,0,1,.68,1.13c.12.12,0,.45-.45.45Z"/><path class="cls-86" d="M782,179a.55.55,0,0,1-.45-.23,3.39,3.39,0,0,0-1.59-1.47,3.91,3.91,0,0,0-5.31,1.59.51.51,0,1,1-.9-.46,5.09,5.09,0,0,1,6.78-2,5.2,5.2,0,0,1,1.92,1.92.55.55,0,0,1-.22.68A.16.16,0,0,0,782,179Z"/><path class="cls-93" d="M782.93,201.63s-.68,4-3.61,4.18a112.39,112.39,0,0,1-11.42-.56s5.65,2.37,5.76,2.26,6.79-.34,6.79-.34,3.61-.23,3.95-.9a2.6,2.6,0,0,0,.34-1.7C784.52,204,782.93,201.63,782.93,201.63Z"/><path class="cls-91" d="M793.28,255.91l-.29-4.09-2.48-27.92s-1.47-10.63.22-13.11,5.88-4,5.88-4l-1.13-.56c-2.94-1.59-10.85-5.43-13-5.32h-.34a18.07,18.07,0,0,0-4.63,2.53,38.35,38.35,0,0,1-3.85,2.33,5.47,5.47,0,0,1-3,.79,14.42,14.42,0,0,1-6-2.48.42.42,0,0,1-.23-.12,5.64,5.64,0,0,0-1.92,1.25l-.34.34a68.62,68.62,0,0,0-6.44,7.35c-2.26,2.93-4.07,6.21-4.07,8.7,0,.47,0,1.2-.12,2.16,0,.44-.07.93-.11,1.46v.68c0,.28,0,.56,0,.84a8.29,8.29,0,0,0-.06.85c0,.27,0,.54,0,.82s-.06.64-.06,1a1.84,1.84,0,0,0-.12.79,2,2,0,0,0-.11.79h0a5.05,5.05,0,0,1-.06.68c0,.23,0,.45,0,.68v.45a5.2,5.2,0,0,1-.06.68,5.2,5.2,0,0,0-.06.68v.45c-.11,1.47-.22,2.94-.45,4.52a6,6,0,0,0-.12.79,7.6,7.6,0,0,1-.1.8v.11c0,.35-.07.7-.1,1.06-.2,2.07-.41,4.28-.7,6.4,0,.34-.08.68-.11,1s0,.68-.11,1c-.1,1.61-.29,3.14-.49,4.74,0,.19,0,.38-.08.57s0,.16,0,.24Z"/><path class="cls-82" d="M797.49,207.29c4.65,2.33,6.76,14.94,2.12,26s-5.82,23.95-14.08,22.92-5-9.08-2.71-11.27,2.11-21.72,3.21-25.92S792.84,205,797.49,207.29Z"/><path class="cls-82" d="M744.14,231.42c0,.09-7.37.31-7.37.31s-7.08-1.43-8.44-1.34-1.57.47-1.57.47-.94,0-1.08.84c-.18,1,6.94,3.71,6.94,3.71s6.15,3,7.19,3.32,15.65,4,15.65,4l.56-7.48s-1.71-2.42-3-4.18-7.89-3.73-9-4.5c-2.1-1.42-3.48-2.75-4.08-2.46a2.31,2.31,0,0,0-.19,3.46C740.74,228.85,744,231,744.14,231.42Z"/><path class="cls-87" d="M726.85,230.77a.47.47,0,0,0-.1.09,1.83,1.83,0,0,0-.33.06.93.93,0,0,0,.17,1.19c.61.48,10.45,3.54,11.58,3.88l.09-.26c-4.37-1.37-11-3.5-11.47-3.84S726.73,230.94,726.85,230.77Z"/><path class="cls-87" d="M744.14,231.42s-.08,0-.25,0l2.48,1.34.15-.23-2.65-1.42A1.07,1.07,0,0,1,744.14,231.42Z"/><path class="cls-82" d="M754.27,234.05a88.34,88.34,0,0,0,9,3.54c3.77,1.09,24.08,4.18,26.76,6.46s2.79,7.13,1.41,9.66-4.33,3.26-7.69,2.45a110.07,110.07,0,0,1-17.71-7.1c-5.49-2.94-14.83-8.48-14.83-8.48Z"/><g class="cls-94"><path class="cls-95" d="M707.54,153.23a13.57,13.57,0,0,0-9.16,23.59,5.71,5.71,0,0,1-2.73,2.12,5.22,5.22,0,0,0,5.76,0,13.58,13.58,0,1,0,6.13-25.69Z"/></g><path class="cls-43" d="M706.37,151.69a13.56,13.56,0,0,0-9.16,23.58,5.72,5.72,0,0,1-2.73,2.13,5.26,5.26,0,0,0,5.77,0,13.57,13.57,0,1,0,6.12-25.69Z"/><path class="cls-96" d="M706.42,165a4.13,4.13,0,0,1-.3,1.62,3.93,3.93,0,0,1-.84,1.3,3.85,3.85,0,0,1-1.31.87,4.44,4.44,0,0,1-1.7.31,4.52,4.52,0,0,1-1.71-.31,4,4,0,0,1-1.32-.87,4,4,0,0,1-.84-1.3,4.28,4.28,0,0,1-.3-1.62,4.23,4.23,0,0,1,.3-1.61,3.75,3.75,0,0,1,2.16-2.16,4.49,4.49,0,0,1,1.71-.32,4.44,4.44,0,0,1,1.7.32,4,4,0,0,1,1.31.87,3.79,3.79,0,0,1,.84,1.29A4.12,4.12,0,0,1,706.42,165Zm-1.9,0a3.59,3.59,0,0,0-.15-1.07,2.47,2.47,0,0,0-.44-.8,2,2,0,0,0-.71-.51,2.62,2.62,0,0,0-1.91,0,1.82,1.82,0,0,0-.71.51,2.29,2.29,0,0,0-.44.8A3.3,3.3,0,0,0,700,165a3.18,3.18,0,0,0,.15,1.07,2.25,2.25,0,0,0,.44.81,1.8,1.8,0,0,0,.71.5,2.61,2.61,0,0,0,1,.17,2.4,2.4,0,0,0,1-.17,1.87,1.87,0,0,0,.71-.5,2.42,2.42,0,0,0,.44-.81A3.46,3.46,0,0,0,704.52,165Z"/><path class="cls-96" d="M708.92,164.27h.3a.68.68,0,0,0,.59-.26l1.8-2.62a1,1,0,0,1,.35-.29,1.19,1.19,0,0,1,.46-.08H714l-2.38,3.24a1.59,1.59,0,0,1-.54.48,1.17,1.17,0,0,1,.37.22,1.55,1.55,0,0,1,.32.35l2.42,3.71h-1.66a1.1,1.1,0,0,1-.27,0,.85.85,0,0,1-.19-.06,1,1,0,0,1-.15-.11.76.76,0,0,1-.11-.14L710,165.9a.64.64,0,0,0-.25-.22,1.22,1.22,0,0,0-.41-.06h-.45V169h-1.86v-8h1.86v3.26Z"/><path class="cls-86" d="M673.27,160.63a.63.63,0,0,0,.56-.34,1.47,1.47,0,0,1,1.7-1.13,1.09,1.09,0,0,1,.56.45.49.49,0,0,0,.79-.57,2.14,2.14,0,0,0-1.13-.79,2.43,2.43,0,0,0-3,1.7c-.11.22.11.56.34.68Z"/><path class="cls-86" d="M683.52,159.74a.41.41,0,0,0,.36-.22.94.94,0,0,1,1.09-.73.71.71,0,0,1,.37.29.32.32,0,0,0,.43.07.33.33,0,0,0,.08-.43,1.34,1.34,0,0,0-.73-.51,1.58,1.58,0,0,0-2,1.09c-.07.14.08.36.22.44Z"/><path class="cls-82" d="M675.89,255.52l-41,7.63c-3.24,1-7.76-2.15-8.66-5.39-1-3.62,1.49-9.91,5.22-10.29l42.45,2Z"/><path class="cls-7" d="M981.41,391.94a4.46,4.46,0,0,0-.28.43l-.16.22q-.33.5-.69,1c-.23.33-.48.66-.73,1,0,.06-.07.07-.08.13-.44.57-.89,1.16-1.34,1.71a.61.61,0,0,1-.07.1.23.23,0,0,1-.07.07c-.32.42-.65.8-1,1.2h0c-.27.33-.57.65-.86,1s-.45.51-.68.73l-.1.11c-.44.46-.89.91-1.33,1.35,0,0,0,0,0,0-.49.49-1,.94-1.47,1.37s-.82.73-1.23,1.07L970,404.47c-.44.35-.87.68-1.32,1a50.6,50.6,0,0,1-5.68,3.66c-.48.28-1,.53-1.47.79a.06.06,0,0,1,0,0l0,0c-.64.33-1.28.64-2,1,0,0-.06,0-.07,0q-.81.39-1.65.72a3.58,3.58,0,0,1-.64.26c-.76.33-1.56.63-2.35.9-.42.18-.85.31-1.28.45-.25.09-.49.18-.75.25-.66.2-1.33.41-2,.6s-1.45.4-2.2.57l-.24.05a48.55,48.55,0,0,1-4.83.94h0l-.15,0a2.54,2.54,0,0,1-.47.07l-1.44.21a74.11,74.11,0,0,1-9.62.61l-1.87,0-.64,0c-1,0-1.91-.05-2.83-.07-37.26-1.31-42.74-16.48-56.3-21a20.31,20.31,0,0,0-3-.78c-.74-.15-1.52-.26-2.32-.34-5.47-.54-12.46.5-22.49,4.12-.66.22-1.33.48-2,.72l-1.16.45a2.81,2.81,0,0,0-.33.13,50.05,50.05,0,0,1-17.85,3.81c-.49,0-1,0-1.46,0l-.53,0c-.45,0-.9-.06-1.34-.11s-1-.12-1.49-.21a.69.69,0,0,1-.24-.05c-.45-.07-.88-.15-1.31-.26a.07.07,0,0,1-.06,0c-.48-.1-.93-.22-1.4-.34l-.16-.05c-.22-.07-.44-.14-.67-.23-22.79-7.46-21.64-45.65-6.15-64.86A166.85,166.85,0,0,1,837.23,308c1.41-1,2.83-2,4.28-3l1.44-1c1.43-.94,2.91-1.87,4.4-2.76,34.67-21,82.11-29.1,129.64,18.43C993.66,336.36,996.3,369.13,981.41,391.94Z"/><path class="cls-97" d="M947,393l-50.61-29.21v-50.6L947,342.38Z"/><path class="cls-98" d="M845.75,393l50.59-29.21v-50.6l-50.59,29.2Z"/><path class="cls-99" d="M896.34,363.78,845.75,393l50.59,29.23L947,393Z"/><path class="cls-96" d="M896.46,356.27l-15.84,9.14,8.81,5.11,15.85-9.14Z"/><path class="cls-100" d="M905.28,361.38l-15.85,9.14,3.67,2.13L909,363.51Z"/><path class="cls-101" d="M894.32,359.56l-6.62,3.82a1.38,1.38,0,0,0,0,2.38l2.53,1.45a1.39,1.39,0,0,0,1.37,0l6.61-3.83a1.36,1.36,0,0,0,0-2.37l-2.53-1.45A1.37,1.37,0,0,0,894.32,359.56Z"/><path class="cls-102" d="M889.43,370.52V378l3.67,2.13v-7.48Z"/><path class="cls-100" d="M880.62,365.41v7.48l8.81,5.11v-7.48Z"/><path class="cls-103" d="M912.15,383.69v7.48l1.63-.93v-7.48Z"/><path class="cls-103" d="M920.88,378.67v7.47l3-1.77v-7.46Z"/><path class="cls-103" d="M914.09,382.59v7.46l3.06-1.77v-7.46Z"/><path class="cls-103" d="M924.25,384.18,928,382v-7.48l-3.74,2.17Z"/><path class="cls-103" d="M917.48,380.63v7.46l3.07-1.76v-7.47Z"/><path class="cls-104" d="M903.94,378.93v7.46l3,1.79v-7.46Z"/><path class="cls-104" d="M910.71,390.33l1.44.84v-7.48l-1.44-.83Z"/><path class="cls-104" d="M907.32,380.89v7.48l3.06,1.77v-7.47Z"/><path class="cls-104" d="M897.17,375v7.48l3.05,1.77v-7.46Z"/><path class="cls-104" d="M893.1,372.65v7.48l3.74,2.16v-7.48Z"/><path class="cls-104" d="M900.55,377v7.46l3.06,1.76v-7.46Z"/><path class="cls-105" d="M896.84,374.81v7.48l.33.19V375Z"/><path class="cls-105" d="M900.22,376.79v7.46l.33.19V377Z"/><path class="cls-105" d="M903.61,378.74v7.46l.33.19v-7.46Z"/><path class="cls-105" d="M907,380.72v7.46l.33.19v-7.48Z"/><path class="cls-106" d="M914.09,382.59l-.31.17Z"/><path class="cls-104" d="M913.78,382.76v7.48l.31-.19v-7.46Z"/><path class="cls-105" d="M910.38,382.67v7.46l.33.19v-7.46Z"/><path class="cls-106" d="M917.15,380.82l.33-.19Z"/><path class="cls-104" d="M917.15,380.82v7.46l.33-.19v-7.46Z"/><path class="cls-106" d="M920.55,378.86l.33-.19Z"/><path class="cls-104" d="M920.55,378.86v7.47l.33-.19v-7.47Z"/><path class="cls-106" d="M923.92,376.91l.33-.19Z"/><path class="cls-105" d="M920.55,378.86v-8.62l-3.07-1.78v12.17Z"/><path class="cls-105" d="M923.92,376.91V372.2l-3-1.77v8.24Z"/><path class="cls-105" d="M910.71,364.55v18.31l1.44.83,1.63-.93V366.31Z"/><path class="cls-105" d="M917.15,380.82V368.27l-3.06-1.77v16.09Z"/><path class="cls-105" d="M928,374.55l-3.74-2.16v4.33Z"/><path class="cls-105" d="M910.38,382.67V364.35l-1.43-.84-1.63.93v16.45Z"/><path class="cls-105" d="M907,380.72V364.63l-3,1.77v12.53Z"/><path class="cls-105" d="M896.84,370.5l-3.74,2.15,3.74,2.16Z"/><path class="cls-105" d="M900.22,376.79v-8.25l-3.05,1.77V375Z"/><path class="cls-105" d="M903.61,378.74V366.59l-3.06,1.76V377Z"/><path class="cls-101" d="M897.17,375v-4.69l-.33.19v4.31Z"/><path class="cls-101" d="M900.55,377v-8.63l-.33.19v8.25Z"/><path class="cls-101" d="M903.94,378.93V366.4l-.33.19v12.15Z"/><path class="cls-101" d="M907.32,380.89V364.44l-.33.19v16.09Z"/><path class="cls-101" d="M914.09,366.5l-.31-.19v16.45l.31-.17Z"/><path class="cls-101" d="M910.71,382.86V364.55l-.33-.19v18.31Z"/><path class="cls-101" d="M917.48,380.63V368.46l-.33-.19v12.55Z"/><path class="cls-101" d="M920.88,378.67v-8.24l-.33-.19v8.62Z"/><path class="cls-101" d="M924.25,376.72v-4.33l-.33-.19v4.71Z"/><path class="cls-104" d="M923.92,376.91v7.46l.33-.19v-7.46Z"/><path class="cls-107" d="M870.25,385.82l-18.53,10.69V358.66L870.25,348Z"/><path class="cls-108" d="M861.14,353.31h-.32v37.86h.32Z"/><path class="cls-108" d="M858.58,372.92h-.33v1.29h.33Z"/><path class="cls-108" d="M863.72,370h-.33v1.28h.33Z"/><path class="cls-108" d="M845.75,393l6,3.52V358.66l-6-3.53Z"/><path class="cls-109" d="M864.28,344.11l6,3.85-18.53,10.7-6-3.53Z"/><path class="cls-101" d="M881.3,353.86h0l-.1-.18c-.35-.62-1.29-2.54-1.29-2.54a.59.59,0,0,1,0,.27,1.23,1.23,0,0,1-.73,1,2.76,2.76,0,0,1-1.31.32,2.83,2.83,0,0,1-1.32-.32,1.23,1.23,0,0,1-.73-1,1.26,1.26,0,0,1,0-.27l-1.4,2.75a1.59,1.59,0,0,0-.21.8c0,1.24,1.45,2.28,3.3,2.39h.59c1.86-.11,3.31-1.13,3.31-2.39A1.4,1.4,0,0,0,881.3,353.86Z"/><path class="cls-105" d="M879.89,351.11a2.39,2.39,0,0,0-4,0,.64.64,0,0,0,0,.28,1.25,1.25,0,0,0,.73,1,2.94,2.94,0,0,0,2.63,0,1.25,1.25,0,0,0,.73-1A1.18,1.18,0,0,0,879.89,351.11Z"/><path class="cls-110" d="M878.2,377.86V357l-.3,0a1.37,1.37,0,0,1-.29,0v20.83c-1.28.1-2.29.81-2.29,1.7s1.16,1.71,2.58,1.71,2.58-.76,2.58-1.71S879.48,378,878.2,377.86Z"/><path class="cls-111" d="M908.15,404.42l-21.54-12.49L874.8,398.6l21.54,12.48Z"/><path class="cls-107" d="M896.34,411.08l11.81-6.66v11l-11.81,6.79Z"/><path class="cls-108" d="M896.34,411.08,874.8,398.6v11.15l21.54,12.47Z"/><path class="cls-110" d="M893.47,395.9V393a1.84,1.84,0,0,1,2.82-1.56l4.14,2.62a1.85,1.85,0,0,1,.86,1.56v4.78Z"/><path class="cls-112" d="M886.56,394.86l-6.41,3.64,8,4.62,6.41-3.62Z"/><path class="cls-96" d="M888.17,401.89l0,0-5.83-3.37,4.24-2.41,0,0,5.83,3.37Zm-5.7-3.39,5.68,3.29,4.09-2.31-5.68-3.29Z"/><path class="cls-96" d="M883.46,397.86l-.05.08,5.77,3.34,0-.08Z"/><path class="cls-96" d="M884.5,397.27l0,.08,5.77,3.34,0-.07Z"/><path class="cls-96" d="M885.54,396.69l0,.08,5.77,3.34,0-.07Z"/><path class="cls-96" d="M887.5,396.67,883.34,399l0,.08,4.16-2.35Z"/><path class="cls-96" d="M888.47,397.22l-4.17,2.35.05.08,4.16-2.35Z"/><path class="cls-96" d="M889.43,397.8l-4.17,2.35,0,.07,4.16-2.35Z"/><path class="cls-96" d="M890.39,398.35l-4.16,2.35,0,.07,4.16-2.35Z"/><path class="cls-96" d="M891.34,398.91l-4.16,2.35,0,.07,4.16-2.35Z"/><path class="cls-113" d="M892.52,397.65l-4,2.3,2.76,1.59,4-2.32Z"/><path class="cls-96" d="M888.48,400l2.76,1.59v1l-2.76-1.6Z"/><path class="cls-114" d="M895.23,399.22v1l-4,2.31v-1Z"/><path class="cls-115" d="M889.61,399.93l1.66,1,.73-.41-1.67-1Z"/><path class="cls-116" d="M896.88,404.56v1.38c.38-.12.66-.38.66-.69S897.26,404.68,896.88,404.56Z"/><path class="cls-116" d="M896.08,404.51l.28.74,0,.1v-.86h0A.76.76,0,0,0,896.08,404.51Z"/><path class="cls-116" d="M895.63,404.66a.71.71,0,0,0-.4.57c0,.37.39.66.89.75l-.28-.75Z"/><path class="cls-117" d="M896.36,405.25l-.28-.75-.46-1.28-.46.18.47,1.28.21.57.28.74a1.14,1.14,0,0,0,.27,0h0v-.66Z"/><path class="cls-115" d="M896.88,405.93a2,2,0,0,1-.26.05h-.54c-.5-.09-.88-.38-.88-.75v2.17c0,.41.52.76,1.16.76s1.16-.35,1.16-.76v-2.15C897.54,405.54,897.26,405.8,896.88,405.93Z"/><path class="cls-118" d="M896.39,403.33V406h.25l.26-.05v-2.62h-.51Z"/><path class="cls-104" d="M929.15,344.2v9.44l10.51,6.06v-9.46Z"/><path class="cls-104" d="M929.15,363.85l10.51,6v-9.44l-10.51-6.06Z"/><path class="cls-104" d="M928.51,343.82l-10.44-6v9.44l10.44,6Z"/><path class="cls-104" d="M918.07,348v9.45l10.44,6V354Z"/><path class="cls-96" d="M917.41,336.69v21.15L940.3,371V349.88Zm11.1,16.57-10.44-6v-9.46l10.44,6Zm-10.44,4.22V348l10.44,6v9.45Zm11.08-3.08,10.49,6.06v9.45l-10.49-6.06Zm0-.76v-9.46l10.49,6.06v9.46Z"/><path class="cls-96" d="M888.81,331.37l0,0,0,0a.84.84,0,0,0-.57-.17,2.65,2.65,0,0,0-1.23.39,6,6,0,0,0-2.82,4.4,1.19,1.19,0,0,0,.4,1v0a.07.07,0,0,0,.06,0h0a1.19,1.19,0,0,0,.44.09,2.56,2.56,0,0,0,1.23-.4,5.93,5.93,0,0,0,2.82-4.4A1.24,1.24,0,0,0,888.81,331.37Z"/><path class="cls-119" d="M889.3,330.94s0,0,0,0l-.09-.08a3,3,0,0,0-1.71-.95l-.12,0h0a2.87,2.87,0,0,0-1.71.48,6.55,6.55,0,0,0-3.15,4.95,1.93,1.93,0,0,0,.5,1.41h0a1.59,1.59,0,0,0,.24.2c.22.15,1,.62,1,.62l.12.07a1.62,1.62,0,0,0,.72.15,3.14,3.14,0,0,0,1.56-.48,6.55,6.55,0,0,0,3.15-4.95A2,2,0,0,0,889.3,330.94ZM884.6,337l-.07,0h0a1.22,1.22,0,0,1-.4-1,5.92,5.92,0,0,1,2.82-4.4,2.59,2.59,0,0,1,1.23-.4.84.84,0,0,1,.57.17l0,0,0,0,0,0a1.3,1.3,0,0,1,.28.92,5.92,5.92,0,0,1-2.83,4.4,2.59,2.59,0,0,1-1.23.4A1.2,1.2,0,0,1,884.6,337Z"/><path class="cls-96" d="M884.19,337.59a0,0,0,0,1,0,0Z"/><path class="cls-96" d="M889.26,331a.38.38,0,0,0-.09-.09S889.23,330.94,889.26,331Z"/><path class="cls-120" d="M886.61,334.35a.12.12,0,0,1-.08,0,.15.15,0,0,1-.09-.14v-1.76a.16.16,0,0,1,.15-.16.16.16,0,0,1,.16.16v1.49l.85-.49a.17.17,0,0,1,.22.05.16.16,0,0,1-.05.23l-1.09.62Z"/><path class="cls-121" d="M911.3,403.52a.76.76,0,0,0,0,.26.84.84,0,0,0,.09.19.61.61,0,0,0,.07.1,1.24,1.24,0,0,0,.4.33,2.49,2.49,0,0,0,2.28.09l1.29-.75,2-1.16a1.36,1.36,0,0,0,.28-.22s0,0,0-.05a1,1,0,0,0,.09-.18v.61a.55.55,0,0,1-.1.22.93.93,0,0,1-.28.23l-3.31,1.9a2.52,2.52,0,0,1-2.28-.08,1.26,1.26,0,0,1-.4-.33.81.81,0,0,1-.14-.3v-.86Z"/><path class="cls-122" d="M911.3,403.52a.75.75,0,0,1,.37-.43l1.33-.77.52.32.45.25,1.44.87-1.29.74a2.52,2.52,0,0,1-2.28-.08,1.53,1.53,0,0,1-.4-.33l-.07-.1a1,1,0,0,1-.08-.19A.52.52,0,0,1,911.3,403.52Z"/><path class="cls-122" d="M913.67,401.11s0,0,0,0A0,0,0,0,0,913.67,401.11Z"/><path class="cls-122" d="M917.62,401.56s0,0,0,0a.05.05,0,0,1,0,0,.35.35,0,0,1,.07.12.54.54,0,0,1,0,.12,1.48,1.48,0,0,1,0,.21v0a.27.27,0,0,1-.08.17s0,0,0,.05a.89.89,0,0,1-.27.23l-2,1.16a3.53,3.53,0,0,0,0-1.21,1.58,1.58,0,0,0-.09-.31,2,2,0,0,0-.29-.49,2,2,0,0,0-.42-.38l-.26-.17a.68.68,0,0,0-.67-.09C914.76,400.54,916.79,400.47,917.62,401.56Z"/><path class="cls-121" d="M913.66,401.13s0,0,0,0a.76.76,0,0,1,.68.09,2,2,0,0,1,.26.17,2.15,2.15,0,0,1,.41.38,2.08,2.08,0,0,1,.3.49c0,.1.06.21.08.31a2.76,2.76,0,0,1,0,1.21l-1.43-.87-.45-.25-.52-.32S913.14,401.37,913.66,401.13Z"/><path class="cls-121" d="M909.74,398.1a.76.76,0,0,0,0,.26.54.54,0,0,0,.08.19.61.61,0,0,0,.07.1,1.36,1.36,0,0,0,.4.33,2.51,2.51,0,0,0,2.29.09l1.28-.75,2-1.16a1.36,1.36,0,0,0,.28-.22s0,0,0-.05a.61.61,0,0,0,.09-.18v.61a.5.5,0,0,1-.1.22.93.93,0,0,1-.28.23l-3.31,1.9a2.52,2.52,0,0,1-2.28-.08,1.38,1.38,0,0,1-.4-.33.75.75,0,0,1-.14-.3v-.86Z"/><path class="cls-122" d="M909.74,398.1a.79.79,0,0,1,.37-.43l1.33-.77.52.32.45.26,1.44.86-1.28.75a2.58,2.58,0,0,1-2.29-.09,1.36,1.36,0,0,1-.4-.33.61.61,0,0,1-.07-.1.77.77,0,0,1-.08-.19A.86.86,0,0,1,909.74,398.1Z"/><path class="cls-122" d="M912.13,395.71s0,0,0,0Z"/><path class="cls-122" d="M916.08,396.14s0,0,0,0a.09.09,0,0,1,0,.05.63.63,0,0,1,.07.12.54.54,0,0,1,0,.12,1.48,1.48,0,0,1,0,.21v.05a.27.27,0,0,1-.08.17s0,0,0,.06a1,1,0,0,1-.27.22l-2,1.16a3.53,3.53,0,0,0,0-1.21c0-.1-.06-.21-.09-.31a2,2,0,0,0-.29-.49,2,2,0,0,0-.42-.38l-.26-.17a.71.71,0,0,0-.67-.09C913.22,395.12,915.23,395.07,916.08,396.14Z"/><path class="cls-121" d="M912.1,395.71s0,0,0,0a.76.76,0,0,1,.68.09,2,2,0,0,1,.26.17,2.15,2.15,0,0,1,.41.38,2.08,2.08,0,0,1,.3.49,1.77,1.77,0,0,1,.08.31,2.91,2.91,0,0,1,0,1.21l-1.44-.86-.45-.26-.52-.32S911.6,396,912.1,395.71Z"/><path class="cls-13" d="M870.07,280.07H799.6v50.21h70.47Z"/><path class="cls-96" d="M867.24,302.56c0-17.88-14.82-21-33.1-21s-33.11,3.61-33.11,21c0,17.14,14.82,21,33.11,21a95.75,95.75,0,0,0,12.79-.71c1.82,3.69,6.13,4.55,6.13,4.55a12.19,12.19,0,0,1-2.39-5.19C860.56,320,867.24,314.75,867.24,302.56Z"/><path class="cls-13" d="M985,277H915.6V326.3H985Z"/><path class="cls-96" d="M917.14,299.08c0-17.55,14.56-20.58,32.51-20.58s32.52,3.55,32.52,20.58c0,16.83-14.56,20.59-32.52,20.59a97.74,97.74,0,0,1-12.57-.69c-1.78,3.61-6,4.46-6,4.46a12.19,12.19,0,0,0,2.35-5.11C923.68,316.2,917.14,311.05,917.14,299.08Z"/><path d="M935,290.79h.27a.73.73,0,0,0,.58-.24l1.71-2.48a.85.85,0,0,1,.33-.28,1.11,1.11,0,0,1,.43-.07h1.53l-2.26,3.07a1.3,1.3,0,0,1-.52.45,1.26,1.26,0,0,1,.66.55l2.31,3.52h-1.58a1,1,0,0,1-.26,0,.54.54,0,0,1-.19-.07l-.14-.1-.1-.14L936,292.35a.44.44,0,0,0-.24-.21,1,1,0,0,0-.38-.05H935v3.22h-1.77v-7.59H935Z"/><path d="M942.52,289.82a3.33,3.33,0,0,1,1.12.19,2.39,2.39,0,0,1,.87.55,2.48,2.48,0,0,1,.55.87,3.31,3.31,0,0,1,0,2.32,2.4,2.4,0,0,1-.55.88,2.55,2.55,0,0,1-.87.56,3.06,3.06,0,0,1-1.12.19,3.3,3.3,0,0,1-1.13-.19,2.81,2.81,0,0,1-.88-.56,2.57,2.57,0,0,1-.57-.88,3.31,3.31,0,0,1,0-2.32,2.44,2.44,0,0,1,.57-.87,2.63,2.63,0,0,1,.88-.55A3.3,3.3,0,0,1,942.52,289.82Zm0,4.36a.92.92,0,0,0,.81-.4,2.1,2.1,0,0,0,.26-1.19,2.14,2.14,0,0,0-.26-1.2.91.91,0,0,0-.81-.39.92.92,0,0,0-.83.39,2.14,2.14,0,0,0-.26,1.2,2.1,2.1,0,0,0,.26,1.19A.93.93,0,0,0,942.52,294.18Z"/><path d="M949.5,291.08a.31.31,0,0,1-.14.14.27.27,0,0,1-.18,0,.46.46,0,0,1-.22-.06l-.24-.1-.3-.1a1.08,1.08,0,0,0-.38-.06.71.71,0,0,0-.47.13.41.41,0,0,0-.17.32.34.34,0,0,0,.1.25,1.1,1.1,0,0,0,.28.17l.4.14.45.15a4.68,4.68,0,0,1,.45.2,1.41,1.41,0,0,1,.4.27,1.15,1.15,0,0,1,.28.4,1.58,1.58,0,0,1,.1.55,2.08,2.08,0,0,1-.14.75,1.86,1.86,0,0,1-.43.59,2.28,2.28,0,0,1-.71.38,3.2,3.2,0,0,1-1,.14,3.64,3.64,0,0,1-.56-.05c-.19,0-.36-.09-.53-.14a2.56,2.56,0,0,1-.47-.21,3.12,3.12,0,0,1-.38-.26l.38-.59a.41.41,0,0,1,.16-.16.55.55,0,0,1,.5,0l.24.14.31.14a1.69,1.69,0,0,0,.44.07,1.37,1.37,0,0,0,.31,0,.54.54,0,0,0,.2-.1.51.51,0,0,0,.13-.16,1,1,0,0,0,0-.17.35.35,0,0,0-.1-.26,1,1,0,0,0-.3-.17,2.35,2.35,0,0,0-.4-.14,4.19,4.19,0,0,1-.46-.16,2.76,2.76,0,0,1-.47-.2,1.4,1.4,0,0,1-.4-.3,1.48,1.48,0,0,1-.29-.43,1.65,1.65,0,0,1-.11-.63,1.58,1.58,0,0,1,.54-1.19A1.68,1.68,0,0,1,947,290a2.89,2.89,0,0,1,.93-.14,3.66,3.66,0,0,1,.57.05,4,4,0,0,1,.52.14,3,3,0,0,1,.44.22,2.42,2.42,0,0,1,.34.28Z"/><path d="M952.2,290.49a1.76,1.76,0,0,1,.33-.27,1.07,1.07,0,0,1,.36-.21,3.26,3.26,0,0,1,.41-.14,2.63,2.63,0,0,1,.49-.05,1.94,1.94,0,0,1,.78.15,1.75,1.75,0,0,1,.57.44,1.68,1.68,0,0,1,.35.66,2.64,2.64,0,0,1,.12.81v3.43H954v-3.43a1,1,0,0,0-.19-.62.63.63,0,0,0-.54-.23,1.39,1.39,0,0,0-.5.1,1.49,1.49,0,0,0-.45.32v3.86h-1.61v-5.4h1a.37.37,0,0,1,.4.27Z"/><path d="M961.62,289.91l-2.9,6.8a.64.64,0,0,1-.17.24.56.56,0,0,1-.33.07H957l1-2.18-2.17-4.92h1.42a.51.51,0,0,1,.3.09.45.45,0,0,1,.15.19l.89,2.32a6.37,6.37,0,0,1,.21.66,1.31,1.31,0,0,1,.12-.33,1.85,1.85,0,0,1,.12-.33l.79-2.32a.51.51,0,0,1,.18-.21.5.5,0,0,1,.26-.08Z"/><path d="M961.84,290.65a3.26,3.26,0,0,1,1.09-.64,3.86,3.86,0,0,1,1.28-.21,2.28,2.28,0,0,1,.89.16,2,2,0,0,1,.67.45,2,2,0,0,1,.42.67,2.33,2.33,0,0,1,.13.85v3.38h-.74a.63.63,0,0,1-.35-.07A.46.46,0,0,1,965,295l-.12-.3a2.61,2.61,0,0,1-.4.3c-.12.08-.26.15-.38.22a1.55,1.55,0,0,1-.43.14,2,2,0,0,1-.5.05,2.15,2.15,0,0,1-.68-.1A1.86,1.86,0,0,1,962,295a1.33,1.33,0,0,1-.33-.46,2.09,2.09,0,0,1-.12-.65,1.54,1.54,0,0,1,.14-.58,1.62,1.62,0,0,1,.5-.56,2.92,2.92,0,0,1,1-.41,6.32,6.32,0,0,1,1.54-.19v-.23a1,1,0,0,0-.19-.69A.71.71,0,0,0,964,291a1.26,1.26,0,0,0-.47.07,1.92,1.92,0,0,0-.33.14l-.27.14a1,1,0,0,1-.33.07.49.49,0,0,1-.28-.09.86.86,0,0,1-.19-.19Zm2.91,2.46a4,4,0,0,0-.8.09,1.48,1.48,0,0,0-.5.15.84.84,0,0,0-.26.21.51.51,0,0,0-.07.26.41.41,0,0,0,.16.38.77.77,0,0,0,.45.1,1.32,1.32,0,0,0,.55-.1,1.59,1.59,0,0,0,.47-.35Z"/><path d="M936.74,300.21a5.65,5.65,0,0,1,1.33.14,2.78,2.78,0,0,1,.9.41,1.62,1.62,0,0,1,.5.64,2.34,2.34,0,0,1,.16.85,1.61,1.61,0,0,1-.07.49,1.48,1.48,0,0,1-.23.45,2.45,2.45,0,0,1-.4.38,2.41,2.41,0,0,1-.58.29,2,2,0,0,1,1.1.59,1.51,1.51,0,0,1,.37,1.06,2.27,2.27,0,0,1-.19.9,2,2,0,0,1-.56.72,2.5,2.5,0,0,1-.9.49,3.72,3.72,0,0,1-1.21.17h-3v-7.58Zm-1,1.31v1.87h.91a4.05,4.05,0,0,0,.52,0,1.24,1.24,0,0,0,.4-.14.62.62,0,0,0,.24-.29,1.06,1.06,0,0,0,.09-.45,1.18,1.18,0,0,0-.07-.45.81.81,0,0,0-.21-.3.75.75,0,0,0-.36-.15,1.9,1.9,0,0,0-.52-.06Zm1.24,5a1.93,1.93,0,0,0,.58-.08.85.85,0,0,0,.34-.23.63.63,0,0,0,.17-.31,1.13,1.13,0,0,0,.06-.36,1.16,1.16,0,0,0-.06-.38.51.51,0,0,0-.19-.28.78.78,0,0,0-.34-.17,2.07,2.07,0,0,0-.56-.07H935.7v1.88Z"/><path d="M942,305.38a1.52,1.52,0,0,0,.42,1,1.18,1.18,0,0,0,.86.31,1.24,1.24,0,0,0,.49-.07l.36-.15.3-.16a.5.5,0,0,1,.27-.07.37.37,0,0,1,.3.14l.46.57a2.56,2.56,0,0,1-.53.47,3.15,3.15,0,0,1-.59.28,2.69,2.69,0,0,1-.61.14c-.2,0-.39,0-.59,0a3,3,0,0,1-1-.19,2.48,2.48,0,0,1-.87-.55,2.71,2.71,0,0,1-.59-.9,3.74,3.74,0,0,1-.22-1.27,2.85,2.85,0,0,1,.19-1,2.17,2.17,0,0,1,.54-.85,2.36,2.36,0,0,1,.83-.57,2.77,2.77,0,0,1,1.1-.21,2.4,2.4,0,0,1,1,.18,1.87,1.87,0,0,1,.76.48,2.4,2.4,0,0,1,.51.78,2.87,2.87,0,0,1,.17,1,1.19,1.19,0,0,1,0,.29c0,.07,0,.14-.05.19a.38.38,0,0,1-.1.09.47.47,0,0,1-.18,0H942Zm2-.93a1.65,1.65,0,0,0,0-.38,1.26,1.26,0,0,0-.16-.33.74.74,0,0,0-.29-.23,1.26,1.26,0,0,0-.46-.08,1,1,0,0,0-.72.26,1.35,1.35,0,0,0-.35.76Z"/><path d="M947.78,303.24a2.75,2.75,0,0,1,.57-.7,1.2,1.2,0,0,1,.75-.24.88.88,0,0,1,.59.18l-.11,1.19a.34.34,0,0,1-.08.16.26.26,0,0,1-.16,0h-.1a.32.32,0,0,1-.14,0h-.3a.85.85,0,0,0-.57.19,1.41,1.41,0,0,0-.36.52v3.27h-1.61v-5.4h1.16a.61.61,0,0,1,.14.07s.07.07.08.12l.06.18Z"/><path d="M953.67,303.58c0,.07-.09.13-.14.14a.24.24,0,0,1-.17,0,.64.64,0,0,1-.23-.05l-.24-.11-.3-.1a1.08,1.08,0,0,0-.38-.06.68.68,0,0,0-.46.13.38.38,0,0,0-.16.33.29.29,0,0,0,.11.24.89.89,0,0,0,.27.17l.4.14.45.15a4.68,4.68,0,0,1,.45.2,1.65,1.65,0,0,1,.4.27,1.15,1.15,0,0,1,.28.4,1.4,1.4,0,0,1,.1.56,2.07,2.07,0,0,1-.14.74,1.76,1.76,0,0,1-.43.59,2.28,2.28,0,0,1-.71.38,3.2,3.2,0,0,1-1,.14,3.53,3.53,0,0,1-.56-.05c-.19,0-.36-.09-.53-.14a3,3,0,0,1-.49-.21,3.12,3.12,0,0,1-.38-.26l.38-.59a.41.41,0,0,1,.16-.16.64.64,0,0,1,.24-.05.51.51,0,0,1,.26.07l.24.14.31.14a1.2,1.2,0,0,0,.44.07,1.37,1.37,0,0,0,.31,0,.51.51,0,0,0,.21-.1.67.67,0,0,0,.12-.16.51.51,0,0,0,0-.17.35.35,0,0,0-.1-.26.85.85,0,0,0-.3-.17,2.24,2.24,0,0,0-.39-.14,3.71,3.71,0,0,1-.47-.16,3.15,3.15,0,0,1-.47-.2,2.32,2.32,0,0,1-.4-.3,1.71,1.71,0,0,1-.29-.43,1.65,1.65,0,0,1-.1-.62,1.85,1.85,0,0,1,.13-.66,1.62,1.62,0,0,1,.4-.54,1.83,1.83,0,0,1,.68-.36,2.84,2.84,0,0,1,.93-.14,3.66,3.66,0,0,1,.57.05c.19,0,.35.09.52.14a3.61,3.61,0,0,1,.44.22,2.42,2.42,0,0,1,.34.28Z"/><path d="M956.7,300.92a.69.69,0,0,1-.09.36.9.9,0,0,1-.21.3,1,1,0,0,1-.31.2,1,1,0,0,1-.38.07.8.8,0,0,1-.36-.07,1.27,1.27,0,0,1-.31-.2,1.17,1.17,0,0,1-.21-.3.86.86,0,0,1-.07-.36.87.87,0,0,1,.07-.37.86.86,0,0,1,.21-.29.85.85,0,0,1,.31-.21.92.92,0,0,1,.36-.07,1,1,0,0,1,.38.07.85.85,0,0,1,.31.21,1.12,1.12,0,0,1,.21.29A1,1,0,0,1,956.7,300.92Zm-.17,1.49v5.4h-1.62v-5.4Z"/><path d="M959.28,302.87a2.2,2.2,0,0,1,.64-.39,1.83,1.83,0,0,1,.81-.16,1.73,1.73,0,0,1,.78.16,1.44,1.44,0,0,1,.57.43,1.68,1.68,0,0,1,.35.66,2.41,2.41,0,0,1,.12.81v3.43h-1.61v-3.43a1,1,0,0,0-.19-.62.61.61,0,0,0-.54-.23,1.25,1.25,0,0,0-.5.11,1.58,1.58,0,0,0-.45.31v3.86h-1.61V300h1.61v2.85Z"/><path d="M963.64,307a.81.81,0,0,1,.07-.35.77.77,0,0,1,.19-.28,1.21,1.21,0,0,1,.29-.19.87.87,0,0,1,.37-.07.92.92,0,0,1,.36.07,1.53,1.53,0,0,1,.3.19,1,1,0,0,1,.19.28,1.28,1.28,0,0,1,.07.35.77.77,0,0,1-.07.34,1,1,0,0,1-.19.28.85.85,0,0,1-.3.19.8.8,0,0,1-.36.07.87.87,0,0,1-.37-.07,1,1,0,0,1-.29-.19.87.87,0,0,1-.19-.28A.77.77,0,0,1,963.64,307Zm1.68-6.77v3c0,.31,0,.64-.05.95s-.09.64-.16.95H964a8.48,8.48,0,0,1-.15-.95,7.46,7.46,0,0,1-.06-.95v-3Z"/><path d="M819.47,294.36h.28a.61.61,0,0,0,.55-.25l1.71-2.47a.84.84,0,0,1,.33-.28,1.16,1.16,0,0,1,.44-.07h1.52l-2.25,3.07a1.55,1.55,0,0,1-.52.45,1.25,1.25,0,0,1,.36.2,1.49,1.49,0,0,1,.3.35l2.28,3.51h-1.83a.84.84,0,0,1-.19-.07.85.85,0,0,1-.14-.11.45.45,0,0,1-.1-.13l-1.72-2.64a.46.46,0,0,0-.24-.2,1,1,0,0,0-.38-.06h-.43v3.22h-1.77v-7.58h1.77v3.07Z"/><path d="M827,293.4a3.39,3.39,0,0,1,1.13.19,2.25,2.25,0,0,1,.86.56,2.51,2.51,0,0,1,.56.86,3.07,3.07,0,0,1,.2,1.16,3,3,0,0,1-.2,1.16,2.7,2.7,0,0,1-.56.89,2.35,2.35,0,0,1-.86.55A2.88,2.88,0,0,1,827,299a3.29,3.29,0,0,1-1.12-.19,2.78,2.78,0,0,1-.89-.55,2.72,2.72,0,0,1-.57-.89,3,3,0,0,1-.21-1.16,3.07,3.07,0,0,1,.21-1.16,2.4,2.4,0,0,1,.57-.86,2.54,2.54,0,0,1,.89-.56A3.06,3.06,0,0,1,827,293.4Zm0,4.37a.9.9,0,0,0,.81-.4,2.88,2.88,0,0,0,0-2.39.9.9,0,0,0-.81-.4.93.93,0,0,0-.83.4,2.88,2.88,0,0,0,0,2.39A.93.93,0,0,0,827,297.77Z"/><path d="M834,294.67a.31.31,0,0,1-.14.14.34.34,0,0,1-.18,0,.63.63,0,0,1-.22,0l-.24-.11-.3-.1a1.4,1.4,0,0,0-.38-.05.71.71,0,0,0-.47.12.41.41,0,0,0-.15.33.28.28,0,0,0,.1.24,1.1,1.1,0,0,0,.28.17,1.72,1.72,0,0,0,.4.14l.45.16a3.57,3.57,0,0,1,.45.19,1.6,1.6,0,0,1,.4.28,1.09,1.09,0,0,1,.27.39,1.4,1.4,0,0,1,.11.56,2,2,0,0,1-.14.74,1.66,1.66,0,0,1-.43.59,2,2,0,0,1-.71.38,3.2,3.2,0,0,1-1,.14,3.53,3.53,0,0,1-.56,0c-.19,0-.36-.09-.53-.14a2.13,2.13,0,0,1-.49-.21,2.29,2.29,0,0,1-.38-.26l.38-.59a.39.39,0,0,1,.16-.15.47.47,0,0,1,.24-.05.43.43,0,0,1,.26.07l.24.13a1.8,1.8,0,0,0,.31.14,1.35,1.35,0,0,0,.44.07,2.51,2.51,0,0,0,.31,0,.7.7,0,0,0,.21-.11.61.61,0,0,0,.12-.15.38.38,0,0,0,0-.17.36.36,0,0,0-.1-.27,1.19,1.19,0,0,0-.3-.17l-.4-.14a4.11,4.11,0,0,1-.46-.15,2.42,2.42,0,0,1-.47-.21,1.53,1.53,0,0,1-.4-.29,2.1,2.1,0,0,1-.29-.44,1.64,1.64,0,0,1-.11-.62,1.86,1.86,0,0,1,.14-.66,1.49,1.49,0,0,1,.4-.53,1.83,1.83,0,0,1,.66-.37,2.84,2.84,0,0,1,.93-.14,3.66,3.66,0,0,1,.57,0c.19,0,.35.09.52.14a2.27,2.27,0,0,1,.44.23,1.59,1.59,0,0,1,.34.28Z"/><path d="M836.68,294.06a3,3,0,0,1,.33-.28,1.25,1.25,0,0,1,.36-.2,1.59,1.59,0,0,1,.42-.14,2.18,2.18,0,0,1,1.26.1,1.46,1.46,0,0,1,.57.44,1.64,1.64,0,0,1,.35.65,2.43,2.43,0,0,1,.12.82v3.42h-1.61v-3.42a.91.91,0,0,0-.19-.63.63.63,0,0,0-.54-.22,1.24,1.24,0,0,0-.5.1,1.58,1.58,0,0,0-.45.31v3.86h-1.61v-5.4h1a.38.38,0,0,1,.4.28Z"/><path d="M846.1,293.47l-2.89,6.81a.79.79,0,0,1-.18.24.54.54,0,0,1-.32.07h-1.22l1-2.18-2.15-4.92h1.42a.45.45,0,0,1,.3.09.45.45,0,0,1,.15.19l.89,2.32c.08.21.15.43.21.65a1.39,1.39,0,0,1,.12-.32,3.21,3.21,0,0,1,.12-.33l.79-2.32a.53.53,0,0,1,.44-.3Z"/><path d="M846.32,294.23a3.36,3.36,0,0,1,1.09-.64,4.2,4.2,0,0,1,1.29-.2,2.46,2.46,0,0,1,.88.15,1.93,1.93,0,0,1,.66.45,1.64,1.64,0,0,1,.41.68,2.11,2.11,0,0,1,.14.85v3.37h-.74a.63.63,0,0,1-.35-.07c-.09,0-.14-.12-.19-.26l-.12-.29a2.52,2.52,0,0,1-.4.29,3.85,3.85,0,0,1-.38.23,2.16,2.16,0,0,1-.43.14,2.67,2.67,0,0,1-.51.05,2.09,2.09,0,0,1-.67-.11,1.43,1.43,0,0,1-.52-.27,1.37,1.37,0,0,1-.33-.47,1.82,1.82,0,0,1-.12-.64,1.42,1.42,0,0,1,.14-.59,1.43,1.43,0,0,1,.5-.55,2.57,2.57,0,0,1,1-.42,7.49,7.49,0,0,1,1.54-.19v-.22a1.12,1.12,0,0,0-.19-.7.66.66,0,0,0-.55-.2,1.28,1.28,0,0,0-.47.06,2.52,2.52,0,0,0-.33.14,1.83,1.83,0,0,1-.28.14.74.74,0,0,1-.33.07.42.42,0,0,1-.27-.09.86.86,0,0,1-.19-.19Zm2.91,2.45a3.93,3.93,0,0,0-.79.08,2.2,2.2,0,0,0-.51.16,1,1,0,0,0-.26.21.47.47,0,0,0-.07.25.44.44,0,0,0,.16.39.77.77,0,0,0,.45.1,1.32,1.32,0,0,0,.55-.1,1.47,1.47,0,0,0,.47-.35Z"/><path d="M821.93,303.79a5.59,5.59,0,0,1,1.33.14,2.43,2.43,0,0,1,.9.42,1.48,1.48,0,0,1,.5.64,2,2,0,0,1,.16.84,1.57,1.57,0,0,1-.07.49,1.7,1.7,0,0,1-.22.45,2.42,2.42,0,0,1-.4.38,2.32,2.32,0,0,1-.59.29,2.21,2.21,0,0,1,1.11.59,1.57,1.57,0,0,1,.36,1.06,2.23,2.23,0,0,1-.19.9,2,2,0,0,1-.55.73,2.85,2.85,0,0,1-.9.48,3.83,3.83,0,0,1-1.22.17h-3v-7.58Zm-1,1.32V307h.92a4.07,4.07,0,0,0,.52,0,1.18,1.18,0,0,0,.4-.14.68.68,0,0,0,.24-.29,1.21,1.21,0,0,0,.08-.45.95.95,0,0,0-.27-.75,1,1,0,0,0-.37-.15,1.9,1.9,0,0,0-.52-.05Zm1.25,4.93a1.62,1.62,0,0,0,.57-.09.77.77,0,0,0,.34-.22.9.9,0,0,0,.18-.31,1.5,1.5,0,0,0,0-.37,1.58,1.58,0,0,0,0-.38.74.74,0,0,0-.19-.27,1,1,0,0,0-.35-.18,2.55,2.55,0,0,0-.55-.07h-1.23V310Z"/><path d="M825.72,306.72a3.1,3.1,0,0,1,1.09-.64,3.86,3.86,0,0,1,1.28-.21,2.19,2.19,0,0,1,.88.16,1.7,1.7,0,0,1,.66.44,2,2,0,0,1,.42.68,2.33,2.33,0,0,1,.14.85v3.37h-.75a.63.63,0,0,1-.34-.06.42.42,0,0,1-.19-.26l-.13-.3a2.71,2.71,0,0,1-.39.3c-.12.08-.26.15-.38.22a2.06,2.06,0,0,1-.44.14,2.49,2.49,0,0,1-.5,0,2,2,0,0,1-.67-.1,1.62,1.62,0,0,1-.52-.28,1.25,1.25,0,0,1-.33-.47,1.82,1.82,0,0,1-.12-.64,1.57,1.57,0,0,1,.13-.59,1.54,1.54,0,0,1,.51-.55,2.94,2.94,0,0,1,1-.42,7.31,7.31,0,0,1,1.54-.19V308a1.09,1.09,0,0,0-.19-.69.65.65,0,0,0-.56-.21,1.2,1.2,0,0,0-.46.07,1.1,1.1,0,0,0-.33.14,1.75,1.75,0,0,1-.28.13.77.77,0,0,1-.33.07.51.51,0,0,1-.28-.08.86.86,0,0,1-.19-.19Zm2.91,2.46a4.13,4.13,0,0,0-.8.08,1.63,1.63,0,0,0-.5.16.84.84,0,0,0-.26.21.48.48,0,0,0-.07.26.41.41,0,0,0,.16.38.77.77,0,0,0,.45.1,1.35,1.35,0,0,0,.55-.1,1.59,1.59,0,0,0,.47-.35Z"/><path d="M836.13,306.15v.58a.28.28,0,0,1-.07.21.63.63,0,0,1-.26.12l-.4.09c0,.07,0,.16.05.24a1,1,0,0,1,0,.24,1.43,1.43,0,0,1-.17.73,2.09,2.09,0,0,1-.47.56,2.22,2.22,0,0,1-.69.34,2.73,2.73,0,0,1-.87.12H833a1.07,1.07,0,0,1-.25,0,.29.29,0,0,0-.17.24.19.19,0,0,0,.14.19,1.63,1.63,0,0,0,.38.09c.16,0,.35,0,.54,0s.41,0,.62,0a3.21,3.21,0,0,1,.62.1,1.47,1.47,0,0,1,.54.23,1.12,1.12,0,0,1,.38.4,1.15,1.15,0,0,1,.14.64,1.51,1.51,0,0,1-.17.71,2.19,2.19,0,0,1-1.37,1.05,3.61,3.61,0,0,1-1.14.16,4.26,4.26,0,0,1-1.09-.12,2.93,2.93,0,0,1-.77-.32,1.38,1.38,0,0,1-.45-.45,1,1,0,0,1-.13-.53.92.92,0,0,1,.2-.61,1.44,1.44,0,0,1,.59-.38.92.92,0,0,1-.31-.31,1,1,0,0,1-.12-.49c0-.08,0-.15,0-.26a1,1,0,0,1,.14-.25,1.37,1.37,0,0,1,.23-.25,1.57,1.57,0,0,1,.33-.21,1.7,1.7,0,0,1-.66-.58,1.56,1.56,0,0,1-.24-.85,1.43,1.43,0,0,1,.17-.73,1.79,1.79,0,0,1,.47-.55,2.14,2.14,0,0,1,.71-.35,2.8,2.8,0,0,1,.88-.12,2.73,2.73,0,0,1,1.21.26h1.65Zm-1.6,5.42a.28.28,0,0,0-.17-.28,1.28,1.28,0,0,0-.45-.12l-.62-.05c-.23,0-.45,0-.68,0a1.06,1.06,0,0,0-.24.23.46.46,0,0,0-.11.29.42.42,0,0,0,.06.21.26.26,0,0,0,.17.15,1.16,1.16,0,0,0,.33.11c.14,0,.31,0,.54,0s.41,0,.57,0a1.67,1.67,0,0,0,.36-.12.47.47,0,0,0,.19-.18A.31.31,0,0,0,834.53,311.57Zm-1.24-3.19a.73.73,0,0,0,.58-.21.72.72,0,0,0,.18-.52.68.68,0,0,0-.18-.52.79.79,0,0,0-.58-.19.83.83,0,0,0-.59.19.71.71,0,0,0-.18.52.73.73,0,0,0,.06.3.71.71,0,0,0,.13.22.63.63,0,0,0,.25.16A1,1,0,0,0,833.29,308.38Z"/><path d="M841.65,306v5.41h-1a.38.38,0,0,1-.39-.28l-.09-.31a2.16,2.16,0,0,1-.33.27,1.07,1.07,0,0,1-.36.21,2.07,2.07,0,0,1-.42.14,2.44,2.44,0,0,1-.48,0,1.87,1.87,0,0,1-.78-.15,1.56,1.56,0,0,1-.57-.44,1.71,1.71,0,0,1-.35-.65,2.39,2.39,0,0,1-.12-.82V306h1.61v3.43a1,1,0,0,0,.19.62.67.67,0,0,0,.54.23,1.24,1.24,0,0,0,.5-.1,1.63,1.63,0,0,0,.45-.32V306h1.61Z"/><path d="M846.17,307.15a.31.31,0,0,1-.14.14.43.43,0,0,1-.17,0,.48.48,0,0,1-.23-.05l-.24-.1-.3-.11a1.4,1.4,0,0,0-.38-.05.74.74,0,0,0-.46.12.39.39,0,0,0-.16.33.27.27,0,0,0,.1.24,1.12,1.12,0,0,0,.28.18l.4.14.45.15a3.57,3.57,0,0,1,.45.19,1.68,1.68,0,0,1,.4.28,1,1,0,0,1,.27.4,1.31,1.31,0,0,1,.11.55,2.08,2.08,0,0,1-.14.75,1.72,1.72,0,0,1-.43.58,2.21,2.21,0,0,1-.71.39,3.56,3.56,0,0,1-1,.13,2.65,2.65,0,0,1-.56-.05,2.94,2.94,0,0,1-.53-.14,2.65,2.65,0,0,1-.49-.2l-.38-.26.38-.59a.41.41,0,0,1,.16-.16.6.6,0,0,1,.24-.05.51.51,0,0,1,.26.07,2.1,2.1,0,0,1,.24.14l.31.14a1.76,1.76,0,0,0,.44.07,1.37,1.37,0,0,0,.31,0,.82.82,0,0,0,.21-.1,1,1,0,0,0,.12-.16.38.38,0,0,0,0-.17.34.34,0,0,0-.1-.26.85.85,0,0,0-.3-.17,1.82,1.82,0,0,0-.39-.14c-.16-.06-.32-.09-.47-.16a2.42,2.42,0,0,1-.47-.21,1.33,1.33,0,0,1-.4-.29,1.71,1.71,0,0,1-.29-.43,1.73,1.73,0,0,1-.11-.63,1.9,1.9,0,0,1,.14-.66,1.58,1.58,0,0,1,.4-.53,1.83,1.83,0,0,1,.66-.37,3.16,3.16,0,0,1,.93-.13,2.84,2.84,0,0,1,.58.05,2.73,2.73,0,0,1,.51.14,2.26,2.26,0,0,1,.44.22,1.59,1.59,0,0,1,.34.28Z"/><path d="M847.41,310.56a.84.84,0,0,1,.07-.35,1.09,1.09,0,0,1,.19-.27.85.85,0,0,1,.3-.19.8.8,0,0,1,.36-.07,1,1,0,0,1,.37.07.81.81,0,0,1,.29.19.61.61,0,0,1,.19.27.91.91,0,0,1,0,.7.93.93,0,0,1-.19.27.81.81,0,0,1-.29.19.74.74,0,0,1-.37.07.68.68,0,0,1-.36-.07,1,1,0,0,1-.3-.19,1.31,1.31,0,0,1-.19-.27A1.36,1.36,0,0,1,847.41,310.56Zm1.7-6.77v3c0,.31,0,.64-.05,1s-.09.64-.16.95h-1.09a8.13,8.13,0,0,1-.15-.95,7.34,7.34,0,0,1-.06-1v-3Z"/><path class="cls-123" d="M834.6,340.81l-6.82-.63-2.7-6.29a.55.55,0,0,0-1,0l-2.7,6.29-6.82.63a.54.54,0,0,0-.31.95l5.14,4.52-1.5,6.68a.55.55,0,0,0,.81.59l5.89-3.5,5.88,3.5a.55.55,0,0,0,.81-.59l-1.5-6.68,5.14-4.52A.54.54,0,0,0,834.6,340.81Z"/><path class="cls-124" d="M825.08,333.89a.55.55,0,0,0-1,0l-2.7,6.29-6.82.63a.54.54,0,0,0-.31.95l5.14,4.52-1.5,6.68a.55.55,0,0,0,.81.59l1.31-.78A24,24,0,0,1,826.42,337Z"/><path class="cls-123" d="M973.14,340.81l-6.82-.63-2.71-6.29a.54.54,0,0,0-1,0l-2.71,6.29-6.81.63a.54.54,0,0,0-.31.95l5.14,4.52L956.41,353a.55.55,0,0,0,.82.59l5.88-3.5,5.89,3.5a.55.55,0,0,0,.81-.59l-1.51-6.68,5.15-4.52A.55.55,0,0,0,973.14,340.81Z"/><path class="cls-124" d="M963.61,333.89a.54.54,0,0,0-1,0l-2.71,6.29-6.81.63a.54.54,0,0,0-.31.95l5.14,4.52L956.41,353a.55.55,0,0,0,.82.59l1.31-.78A24.07,24.07,0,0,1,965,337Z"/><path class="cls-123" d="M819,365.41l-4.54-.42-1.81-4.19a.36.36,0,0,0-.66,0L810.16,365l-4.54.42a.37.37,0,0,0-.21.64l3.43,3-1,4.45a.37.37,0,0,0,.55.39l3.92-2.33,3.92,2.33a.36.36,0,0,0,.54-.39l-1-4.45,3.43-3A.37.37,0,0,0,819,365.41Z"/><path class="cls-124" d="M812.63,360.8a.36.36,0,0,0-.66,0L810.16,365l-4.54.42a.37.37,0,0,0-.21.64l3.43,3-1,4.45a.37.37,0,0,0,.55.39l.87-.52a16,16,0,0,1,4.28-10.51Z"/><path class="cls-123" d="M983.82,365.41l-4.54-.42-1.8-4.19a.37.37,0,0,0-.67,0L975,365l-4.54.42a.37.37,0,0,0-.21.64l3.43,3-1,4.45a.36.36,0,0,0,.54.39l3.92-2.33,3.92,2.33a.37.37,0,0,0,.55-.39l-1-4.45,3.43-3A.37.37,0,0,0,983.82,365.41Z"/><path class="cls-124" d="M977.48,360.8a.37.37,0,0,0-.67,0L975,365l-4.54.42a.37.37,0,0,0-.21.64l3.43,3-1,4.45a.36.36,0,0,0,.54.39l.87-.52a16,16,0,0,1,4.28-10.51Z"/><path class="cls-123" d="M834,375.52l-3.41-.32-1.35-3.14a.27.27,0,0,0-.5,0l-1.36,3.14-3.4.32a.28.28,0,0,0-.16.48l2.57,2.26-.75,3.34a.27.27,0,0,0,.41.29l2.94-1.75,2.94,1.75a.27.27,0,0,0,.41-.29l-.75-3.34,2.57-2.26A.28.28,0,0,0,834,375.52Z"/><path class="cls-124" d="M829.21,372.06a.27.27,0,0,0-.5,0l-1.36,3.14-3.4.32a.28.28,0,0,0-.16.48l2.57,2.26-.75,3.34a.27.27,0,0,0,.41.29l.65-.39a12,12,0,0,1,3.21-7.88Z"/><path class="cls-123" d="M966.37,375.52,963,375.2l-1.35-3.14a.27.27,0,0,0-.5,0l-1.36,3.14-3.4.32a.28.28,0,0,0-.16.48l2.57,2.26L958,381.6a.27.27,0,0,0,.41.29l2.94-1.75,2.94,1.75a.27.27,0,0,0,.41-.29l-.76-3.34,2.58-2.26A.28.28,0,0,0,966.37,375.52Z"/><path class="cls-124" d="M961.61,372.06a.27.27,0,0,0-.5,0l-1.36,3.14-3.4.32a.28.28,0,0,0-.16.48l2.57,2.26L958,381.6a.27.27,0,0,0,.41.29l.65-.39a12,12,0,0,1,3.21-7.88Z"/><path class="cls-125" d="M822.48,464.26h-13.2a.73.73,0,0,0-.6.33l-3,4.61a.71.71,0,0,0,.06.86l9.6,10.74a.73.73,0,0,0,1.07,0l9.6-10.74a.72.72,0,0,0,.07-.86l-3-4.61A.71.71,0,0,0,822.48,464.26Z"/><path class="cls-126" d="M823.08,464.59a.71.71,0,0,0-.6-.33,22.71,22.71,0,0,0-13.2,0,.73.73,0,0,0-.6.33l-3,4.61a.69.69,0,0,0-.11.46h20.62a.75.75,0,0,0-.11-.46Z"/><path class="cls-127" d="M820.35,469.66l-4.47,11.27-4.47-11.27Z"/><g class="cls-128"><path class="cls-129" d="M820.08,469.85l2.8-5.59,3.78,5.59Z"/><path class="cls-130" d="M811.2,469.85l-2.66-5.59L805,469.85Z"/><path class="cls-131" d="M811.41,469.66l4.47-6.38,4.47,6.38Z"/><path class="cls-132" d="M813.86,469.58a3,3,0,0,1-.45-.12,2.76,2.76,0,0,1-1.8-2.32.09.09,0,0,0-.18,0,2.76,2.76,0,0,1-2.24,2.44.1.1,0,0,0,0,.19,2.74,2.74,0,0,1,2.24,2.41.09.09,0,0,0,.09.08.09.09,0,0,0,.09-.08,2.91,2.91,0,0,1,1.3-2.07,3.16,3.16,0,0,1,1-.35.09.09,0,0,0,.07-.09A.08.08,0,0,0,813.86,469.58Z"/><path class="cls-133" d="M809.93,464.55l-.23-.06a1.47,1.47,0,0,1-.92-1.22,0,0,0,0,0-.09,0,1.43,1.43,0,0,1-1.14,1.28.05.05,0,0,0,0,.1,1.42,1.42,0,0,1,1.14,1.27.05.05,0,0,0,0,0,0,0,0,0,0,0,0,1.54,1.54,0,0,1,.66-1.09,1.37,1.37,0,0,1,.49-.18.05.05,0,0,0,0,0S810,464.55,809.93,464.55Z"/><path class="cls-134" d="M823.1,466.55l-.22-.07a1.49,1.49,0,0,1-.89-1.27,0,0,0,1,0-.09,0,1.45,1.45,0,0,1-1.1,1.34.05.05,0,0,0,0,.1,1.45,1.45,0,0,1,1.1,1.33.05.05,0,0,0,.05,0,0,0,0,0,0,0,0,1.66,1.66,0,0,1,.64-1.14,1.5,1.5,0,0,1,.47-.19.07.07,0,0,0,0,0A0,0,0,0,0,823.1,466.55Z"/></g></g></svg>